<svg xmlns="http://www.w3.org/2000/svg" width="87.793" height="52.5" viewBox="0 0 87.793 52.5"><defs><style>.a,.b{fill:#0e77ff;}.b{fill-rule:evenodd;}</style></defs><g transform="translate(-1.668 -1.1)"><path class="a" d="M35.211,20.167a8.835,8.835,0,0,0,.321,2.6,15.629,15.629,0,0,0,.934,2.1,1.27,1.27,0,0,1,.2.672,1.156,1.156,0,0,1-.555.876l-1.84,1.226a1.4,1.4,0,0,1-.759.263,1.344,1.344,0,0,1-.876-.409,9.033,9.033,0,0,1-1.051-1.372c-.292-.5-.584-1.051-.905-1.723A10.787,10.787,0,0,1,22.1,28.43a8,8,0,0,1-5.84-2.1A7.5,7.5,0,0,1,14.1,20.722a7.517,7.517,0,0,1,2.657-6.015,10.622,10.622,0,0,1,7.154-2.278,23.118,23.118,0,0,1,3.1.234c1.08.146,2.19.38,3.358.642V11.174c0-2.219-.467-3.767-1.372-4.672-.934-.905-2.511-1.343-4.759-1.343a13.285,13.285,0,0,0-3.153.38,23.266,23.266,0,0,0-3.153.993,8.378,8.378,0,0,1-1.022.38A1.791,1.791,0,0,1,16.436,7c-.409,0-.613-.292-.613-.905V4.662a1.848,1.848,0,0,1,.2-1.022,2.186,2.186,0,0,1,.818-.613,16.81,16.81,0,0,1,3.679-1.314,17.7,17.7,0,0,1,4.555-.555c3.475,0,6.015.788,7.65,2.365,1.606,1.577,2.424,3.971,2.424,7.183v9.46ZM23.356,24.605a9.463,9.463,0,0,0,3.008-.526,6.507,6.507,0,0,0,2.774-1.869,4.635,4.635,0,0,0,.993-1.869,10.482,10.482,0,0,0,.292-2.54V16.576a24.384,24.384,0,0,0-2.686-.5,22,22,0,0,0-2.745-.175,6.731,6.731,0,0,0-4.351,1.168A4.07,4.07,0,0,0,19.21,20.43a3.768,3.768,0,0,0,4.146,4.175ZM46.8,27.759a1.63,1.63,0,0,1-1.11-.292,2.38,2.38,0,0,1-.613-1.139L38.218,3.757a5.115,5.115,0,0,1-.263-1.168.641.641,0,0,1,.7-.73h2.862a1.619,1.619,0,0,1,1.139.292,2.389,2.389,0,0,1,.584,1.139l4.905,19.33L52.7,3.29a2.048,2.048,0,0,1,.555-1.139,2.009,2.009,0,0,1,1.168-.292H56.76a1.757,1.757,0,0,1,1.168.292,1.967,1.967,0,0,1,.555,1.139L63.1,22.853,68.147,3.29a2.5,2.5,0,0,1,.584-1.139,1.905,1.905,0,0,1,1.139-.292h2.716a.649.649,0,0,1,.73.73,2.913,2.913,0,0,1-.058.467,4.155,4.155,0,0,1-.2.73L66.016,26.357A2.239,2.239,0,0,1,65.4,27.5a1.868,1.868,0,0,1-1.11.292H61.782a1.757,1.757,0,0,1-1.168-.292,2.07,2.07,0,0,1-.555-1.168L55.533,7.495l-4.5,18.8a2.279,2.279,0,0,1-.555,1.168,1.81,1.81,0,0,1-1.168.292Zm37.521.788a19.323,19.323,0,0,1-4.5-.526,13.283,13.283,0,0,1-3.358-1.168,2.1,2.1,0,0,1-.905-.818,2.061,2.061,0,0,1-.175-.818V23.729c0-.613.234-.905.672-.905a1.653,1.653,0,0,1,.526.088c.175.058.438.175.73.292a15.882,15.882,0,0,0,3.212,1.022,17.535,17.535,0,0,0,3.475.35,7.878,7.878,0,0,0,4.263-.964,3.144,3.144,0,0,0,1.518-2.774A2.844,2.844,0,0,0,89,18.795a7.326,7.326,0,0,0-2.949-1.518l-4.234-1.314a8.906,8.906,0,0,1-4.672-2.978,6.957,6.957,0,0,1-1.46-4.234,6.5,6.5,0,0,1,.788-3.241,7.508,7.508,0,0,1,2.1-2.394A9.267,9.267,0,0,1,81.608,1.6a12.726,12.726,0,0,1,3.679-.5,14.658,14.658,0,0,1,1.956.117c.672.088,1.285.2,1.9.321.584.146,1.139.292,1.664.467a6.372,6.372,0,0,1,1.226.526,2.525,2.525,0,0,1,.876.73,1.574,1.574,0,0,1,.263.964V5.6c0,.613-.234.934-.672.934a3.037,3.037,0,0,1-1.11-.35,13.358,13.358,0,0,0-5.606-1.139,7.536,7.536,0,0,0-3.883.818,2.819,2.819,0,0,0-1.372,2.6,2.757,2.757,0,0,0,.876,2.073,8.722,8.722,0,0,0,3.212,1.606l4.146,1.314a8.881,8.881,0,0,1,4.526,2.8,6.607,6.607,0,0,1,1.343,4.088,7.506,7.506,0,0,1-.759,3.387A7.853,7.853,0,0,1,91.74,26.3,9.412,9.412,0,0,1,88.5,27.934,13.885,13.885,0,0,1,84.324,28.547Z" transform="translate(-8.802 0)"/><g transform="translate(1.668 33.83)"><path class="b" d="M81.04,126.313c-9.606,7.1-23.564,10.862-35.564,10.862A64.34,64.34,0,0,1,2.057,120.62c-.905-.818-.088-1.927.993-1.285A87.564,87.564,0,0,0,46.5,130.868a86.7,86.7,0,0,0,33.141-6.774C81.245,123.364,82.617,125.145,81.04,126.313Z" transform="translate(-1.668 -117.405)"/><path class="b" d="M258.021,117.545c-1.226-1.577-8.117-.759-11.242-.38-.934.117-1.08-.7-.234-1.314,5.489-3.854,14.512-2.745,15.563-1.46,1.051,1.314-.292,10.336-5.431,14.658-.788.672-1.548.321-1.2-.555C256.648,125.6,259.247,119.093,258.021,117.545Z" transform="translate(-174.648 -113.192)"/></g></g></svg>