<svg xmlns="http://www.w3.org/2000/svg" width="74" height="74" viewBox="0 0 74 74"><defs><style>.a{fill:#0e77ff;}.b{fill:#fff;}</style></defs><g transform="translate(-12.585 -25.998)"><g transform="translate(12.585 25.998)"><circle class="a" cx="37" cy="37" r="37"/><path class="b" d="M80.663,40.386a13.229,13.229,0,0,0-9.449,5.052,31.845,31.845,0,0,0-5.781,10.639c-2.311-1.894-4.093-4.345-7.8-5.415a9.533,9.533,0,0,0-8.644,1.578,7.75,7.75,0,0,0-2.644,3.852c-1.114,3.618,1.168,6.837,2.206,7.995l2.266,2.425a3.447,3.447,0,0,1,1.043,3.5,4.183,4.183,0,0,1-5.323,2.453c-1.069-.331-2.606-1.126-2.261-2.245a9.811,9.811,0,0,1,.648-1.2,5.553,5.553,0,0,0,.286-.746,3,3,0,0,0-1.689-3.758,2.515,2.515,0,0,0-3.452,1.746c-.644,2.09.356,5.874,5.706,7.526C52.043,75.715,57.346,72.3,58.1,67.849c.474-2.788-.787-4.86-3.092-7.526l-1.878-2.077a3.427,3.427,0,0,1-.352-4.565c.994-1.257,2.409-1.793,4.73-1.164,3.385.917,4.895,3.267,7.411,5.163-1.039,3.409-1.72,6.831-2.333,9.9l-.377,2.286c-1.8,9.44-3.174,14.622-6.744,17.6a5.769,5.769,0,0,1-3.3,1.332.95.95,0,0,1-1.088-.778c-.018-.57.464-.832.783-1.088a1.977,1.977,0,0,0,1.149-2.073,3.128,3.128,0,0,0-3.362-2.986,3.894,3.894,0,0,0-3.615,3.954c.087,2.606,2.517,4.562,6.182,4.436,1.96-.064,6.334-.862,10.644-5.986,5.017-5.876,6.421-12.611,7.477-17.539l1.177-6.506c.655.077,1.354.131,2.116.148,6.249.134,9.374-3.1,9.423-5.458.03-1.425-.935-2.827-2.288-2.8a2.609,2.609,0,0,0-2.475,2.009c-.285,1.314,1.989,2.5.211,3.651-1.262.818-3.526,1.394-6.713.926l.581-3.2c1.181-6.074,2.642-13.546,8.176-13.726.4-.021,1.88.018,1.914.993.009.326-.071.41-.452,1.156a2.641,2.641,0,0,0-.519,1.646,2.6,2.6,0,0,0,2.94,2.509c2.282-.075,2.939-2.3,2.9-3.439-.095-2.686-2.924-4.381-6.667-4.26Z" transform="translate(-27.665 -26.742)"/></g></g></svg>