<svg xmlns="http://www.w3.org/2000/svg" width="874" height="589.245" viewBox="0 0 874 589.245"><defs><style>.a,.o{fill:#0e77ff;}.b{fill:#1f9bd9;}.c,.l{fill:none;}.d{fill:#65b8e5;}.e{fill:#a3d0ec;}.f,.n{fill:#f9fbff;}.g{fill:#e8a17e;}.h{fill:#d88d6c;}.i,.p{fill:#fff;}.j{fill:#161119;}.k{fill:#3e3244;}.l{stroke:#3e3244;stroke-miterlimit:10;stroke-width:5px;}.m{fill:#f27b53;opacity:0.45;}.n,.o,.p{stroke:#0e77ff;}.q,.r{fill:#26476d;}.q{opacity:0.27;}.r{opacity:0.07;}</style></defs><g transform="translate(-537 -8856.501)"><g transform="translate(537 8857.001)"><g transform="translate(0 251.401)"><path class="a" d="M-419.969,118.608c-3.775-5.519-15.1-19.108-12.363-25.227,5.894-13.17,52.81-22.664,96.156,28.289" transform="translate(563.325 178.81)"/><path class="a" d="M-208.988,305.395c-46.909,5.982-102.288,10.844-146.7-14.557-29.427-16.826-5.275-40.465,21.039-39.446-33.2-3.988-75.349-30-84.606-64.211a14.652,14.652,0,0,1,10.457-17.77c3.188-.856,17.57,1.65,20.745,1.313C-416.446,161.1-471.368,99.456-448,69.1c21.351-27.739,59.748,15.214,76.824,25.47-9.682-15.37-13.113-41.822,9.145-42.94,31.877-1.594,62.167,68.786,75.868,90.469.581-9.044-.144-32.99,7.894-37.228,17.276-9.119,75.23,19.945,78.893,110.47C-198.73,231.252-193.862,280.837-208.988,305.395Z" transform="translate(453.644 14.275)"/><path class="b" d="M-342.766,307.527c-32.984-18.489-70.88-41.728-87.325-79.193-10.888-24.82,15.876-28.508,32.308-15.326-19.439-18.376-34.134-55.148-23.8-81.537a11.719,11.719,0,0,1,15.182-6.438c2.457.969,10.5,9.426,12.7,10.719-13.663-19.7-19.6-85.456,9.869-93.838,26.921-7.651,31.14,38.228,37.234,52.947,1.094-14.488,11.482-33.115,26.314-23.239,21.245,14.151,7.194,73.793,5.676,94.244,4.681-5.532,15.614-21.258,22.8-20.158,15.445,2.369,38.84,48.635-1.906,108.539C-300.875,264.774-321.352,298.958-342.766,307.527Z" transform="translate(564.021 -41.061)"/><path class="b" d="M-365.287,251.714c-8.132-36.928-15.97-80.687,1.069-117.877,11.294-24.639,31.852-7.107,32.934,13.932.794-26.733,18.482-62.167,45.065-71.992a11.719,11.719,0,0,1,14.907,7.05c.906,2.481-.056,14.113.438,16.62,5.625-23.308,50.791-71.467,76.643-55.035,23.62,15.02-7.832,48.678-14.776,63.017,11.545-8.819,32.365-13.445,34.853,4.2,3.556,25.277-50.323,54.448-66.611,66.911,7.244-.181,26.264-2.475,30.215,3.619,8.5,13.107-10.488,61.348-82.325,70.755C-305.5,254.571-344.648,262.009-365.287,251.714Z" transform="translate(869.943 -41.052)"/></g><path class="c" d="M-326.4,88.517l1.306,10.132c-3.938-.213-6.813-1.606-8.107-3.2a3.052,3.052,0,0,1-.581-3.15C-332.962,89.936-329.624,88.911-326.4,88.517Z" transform="translate(1081.865 459.502)"/><g transform="translate(700.325 363.019)"><g transform="translate(0 133.203)"><path class="d" d="M-337.912,112.408c4.832,5.957,13.851,9.444,24.039,9.632l2.15,16.689h40.209l3.55-20.908c-12.207-.731-34.5-6.3-52.335-34.2-8.157,1.238-17.276,4.607-20.358,13.388A15.553,15.553,0,0,0-337.912,112.408Zm6.638-12.113c1.538-4.382,7.726-6.282,13.695-7.007l2.425,18.789c-7.307-.394-12.638-2.969-15.039-5.925A5.718,5.718,0,0,1-331.274,100.3Z" transform="translate(341.6 -62.436)"/><path class="e" d="M-337.354,101.413c.481-.069.975-.163,1.45-.225l-2.431-18.858a1.862,1.862,0,0,1,1.844-2.1h58.417a2.082,2.082,0,0,1,2.05,2.425l-8.994,52.96C-297.227,134.884-319.516,129.315-337.354,101.413Z" transform="translate(358.656 -80.23)"/></g><path class="f" d="M-319.791,184.29c5.807-3.088,11.344-14.213,13.632-19.358s2.956-11.307.419-16.332c-2.138-4.25-6.244-7.175-8.8-11.188a18.158,18.158,0,0,1-2.232-14.132c1.738-6.694,7.232-12.032,8.488-18.833,1.475-7.976-3.156-15.645-5.188-23.5a37.521,37.521,0,0,1,1.044-22.027c-5.669,3.369-9.057,9.444-12.182,15.245-2.856,5.3-5.794,10.963-5.382,16.964.262,3.775,1.838,7.307,3.163,10.851,2.394,6.413,4.031,13.451,2.325,20.083-2.588,10.026-12.463,17.864-12.076,28.208.231,6.132,4.207,11.57,8.994,15.4,3.119,2.5,6.725,4.582,8.913,7.926s2.263,8.569-1.119,10.694" transform="translate(367.901 -58.919)"/></g><g transform="translate(262.629 144.482)"><path class="a" d="M-344.534,30.464c4.65,10.788,8.213,21.214,9.945,31.933s2.325,21.639,4.988,32.165c2.356,9.3,6.288,18.126,10.513,26.739a5.734,5.734,0,0,1,.775,2.481c-.006,1.706-1.475,3.006-2.856,4.013-20.945,15.314-50,18.776-73.955,8.807" transform="translate(498.267 10.217)"/><ellipse class="d" cx="20.646" cy="25.671" rx="20.646" ry="25.671" transform="translate(133.475 62.226)"/><path class="g" d="M-361.422,66.2c-1.95,10.976-3.563,23.427,3.25,32.246,1.494,1.931,3.438,3.819,3.544,6.263.137,3.2-2.919,5.55-5.782,6.982a45.64,45.64,0,0,1-36.059,1.869,5.927,5.927,0,0,1-2.594-1.581c-1.457-1.806-.519-4.457.375-6.594a79.454,79.454,0,0,0-.631-62.092" transform="translate(473.621 77.585)"/><path class="h" d="M-372.982,53.443c-1.906,7.707-3.156,15.126-2.313,23.014a.989.989,0,0,1-.137.775c-.25.269-.688.162-1.031.038a31.879,31.879,0,0,1-7.307-3.357c-3.744-2.55-8.151-7.244-10.076-11.345a33.618,33.618,0,0,1-3.488-17.451" transform="translate(486.157 87.151)"/><path class="g" d="M-315.981,30.7c7.819,8.732,9.645,21.164,10.669,32.846.913,10.288,1.463,20.689.006,30.915s-5.051,20.345-11.663,28.283a43.291,43.291,0,0,1-9.738,8.626,24.9,24.9,0,0,1-8.175,3.644c-5.576,1.194-11.339-.406-16.764-2.163-12.357-4.007-25.083-9.426-32.715-19.939-9.945-13.707-16.514-49.772-19.1-66.5" transform="translate(454.526 11.472)"/><path class="h" d="M-310.947,33.26a83.9,83.9,0,0,1-40.978,19.208c-8.738,1.438-17.645,1.475-26.5,1.288a45.493,45.493,0,0,1-9.882-.963,18.105,18.105,0,0,1-11.163-7.519c-2.438-3.894-2.763-9.232-.175-13.032" transform="translate(465.068 19.547)"/><path class="a" d="M-357.269,31.065c22.039-10.651,53.941-8.444,69.98.731s22.677,17.389,31.046,36.515c.5,1.144,3.394,8.176,2.957,9.344a3.372,3.372,0,0,1-2.15,2.244c-19.808,7.557-37.221,8.919-58.392,9.969-7.051.35-14.207.363-21.064-1.306-9.713,32.527-4.65,55.841,11.52,85.687-10.526,4.438-51.454,6.988-70.93-8.094-5.019-3.894-9.607-8.494-12.663-14.07-7.744-14.132-4.419-31.565-.206-47.122,3.132-11.576,6.682-23.145,12.37-33.709,8.744-16.22,20.62-32.884,37.534-40.19" transform="translate(411.626 -23.956)"/><path class="i" d="M-361.058,42.168c-1.606,4.969-3.457,9.544-7.851,12.363-4.356,2.788-10.182,2.463-14.87.269s-9.144-7.7-12.426-11.7c11.376,1.063,23.9,1.05,35.146-.931" transform="translate(492.602 71.668)"/><g transform="translate(111.081 81.286)"><path class="j" d="M-392.973,40.177a9.774,9.774,0,0,1,9.751-.088l1.056-1.556a11.56,11.56,0,0,0-11.688-.019Z" transform="translate(393.855 -36.96)"/></g><g transform="translate(72.55 82.011)"><path class="j" d="M-400.02,39.044l4.922-.086V37.076h-4.663Z" transform="translate(400.02 -37.076)"/></g><path class="h" d="M-389.822,38.018l5.961,18.262-9.385.761" transform="translate(508.132 49.879)"/><g transform="translate(74.935 68.543)"><path class="k" d="M-374.881,39.749a11.79,11.79,0,0,0-1.181-.619c-.244-.113-.488-.225-.731-.325l.269.113q-.919-.384-1.875-.694a22.306,22.306,0,0,0-2.388-.619c-.519-.106-1.038-.194-1.563-.269l.3.044a22.6,22.6,0,0,0-4.55-.15c-.469.038-.937.081-1.4.144l.3-.038a22.263,22.263,0,0,0-4.507,1.094c-.45.156-.894.331-1.331.519l.269-.119a26.525,26.525,0,0,0-4.669,2.575,1.14,1.14,0,0,1-.869.113,1.145,1.145,0,0,1-.675-.519,1.139,1.139,0,0,1-.113-.869,1.268,1.268,0,0,1,.519-.675,26.448,26.448,0,0,1,7.538-3.613,23.4,23.4,0,0,1,6.769-.919,24.313,24.313,0,0,1,5.575.731,23.321,23.321,0,0,1,3.906,1.363,14.015,14.015,0,0,1,1.531.769l.019.012a1.217,1.217,0,0,1,.519.675,1.137,1.137,0,0,1-.119.869,1.093,1.093,0,0,1-.669.519,1.156,1.156,0,0,1-.875-.113Z" transform="translate(399.638 -34.922)"/></g><g transform="translate(128.203 66.518)"><path class="k" d="M-389.249,41.588a10.324,10.324,0,0,1,1.05-.825c.219-.156.438-.313.663-.456l-.244.162c.556-.369,1.125-.706,1.713-1.019a21.457,21.457,0,0,1,2.238-1.05c.488-.2.988-.381,1.488-.544l-.288.094a22.575,22.575,0,0,1,4.444-.975q.7-.075,1.406-.113l-.3.013a22.994,22.994,0,0,1,4.632.256c.469.075.938.163,1.4.269l-.281-.063c1.738.381-.575,1.556,2.613.725.294-.075-2.081-3.075-4.863-3.35a23.374,23.374,0,0,0-6.826.325,24.428,24.428,0,0,0-5.35,1.731,24.052,24.052,0,0,0-3.594,2.056,12.874,12.874,0,0,0-1.363,1.038l-.012.013a1.2,1.2,0,0,0-.387.763,1.153,1.153,0,0,0,.269.831,1.118,1.118,0,0,0,.756.388,1.159,1.159,0,0,0,.837-.269Z" transform="translate(391.116 -34.598)"/></g><path class="l" d="M-384.407,40.872s-5.457-7.826-13.445-1.113" transform="translate(483.95 44.743)"/><path class="l" d="M-376.925,40.6s-5.457-7.826-13.445-1.113" transform="translate(523.233 43.325)"/><circle class="m" cx="8.067" cy="8.067" r="8.067" transform="translate(76.685 94.537)"/><circle class="m" cx="6.799" cy="6.799" r="6.799" transform="translate(135.998 92.667)"/><g transform="translate(121.581 66.52)"><path class="j" d="M-392.175,52.424A17.848,17.848,0,0,1-374.343,34.6a17.843,17.843,0,0,1,17.826,17.826,17.849,17.849,0,0,1-17.826,17.832A17.854,17.854,0,0,1-392.175,52.424Zm2.056,0A15.8,15.8,0,0,0-374.343,68.2a15.8,15.8,0,0,0,15.77-15.776,15.789,15.789,0,0,0-15.77-15.77A15.794,15.794,0,0,0-390.119,52.424Z" transform="translate(392.175 -34.598)"/></g><g transform="translate(76.735 66.52)"><path class="j" d="M-399.35,52.424A17.843,17.843,0,0,1-381.523,34.6a17.848,17.848,0,0,1,17.832,17.826,17.854,17.854,0,0,1-17.832,17.832A17.848,17.848,0,0,1-399.35,52.424Zm2.056,0A15.8,15.8,0,0,0-381.523,68.2a15.8,15.8,0,0,0,15.776-15.776,15.794,15.794,0,0,0-15.776-15.77A15.789,15.789,0,0,0-397.293,52.424Z" transform="translate(399.35 -34.598)"/></g><g transform="translate(50.639 109.804)"><g transform="translate(55.678 21.13)"><ellipse class="j" cx="4.852" cy="6.205" rx="4.852" ry="6.205" transform="translate(0 9.658) rotate(-84.487)"/></g><path class="j" d="M-352.434,69.037a62.151,62.151,0,0,0,8.395.244l-.106-2.675c-32.321,1.288-57.179-24.82-57.423-25.083l-1.956,1.831C-403.287,43.6-381.78,66.206-352.434,69.037Z" transform="translate(403.525 -41.523)"/></g><g transform="translate(30.421 1.316)"><g transform="translate(14.359)"><path class="d" d="M-299.49,86.238c-2.406-18.114-11.232-38.071-25.689-48.31-12.951-9.169-30.277-9.757-44.547-3.869-12.3,5.069-20.439,16.376-24.452,29.552-3.419,11.226-3.875,22.758-4.669,34.415-.262,3.85-5.869,3.875-5.606,0,.756-11.095,1.175-22.152,4-32.946,3.682-14.045,11.213-26.939,23.414-34,14.526-8.4,33.771-9.294,48.772-1.894,12.2,6.019,21.12,17.751,26.783,30.577a92.717,92.717,0,0,1,7.394,24.864c.506,3.794-4.894,5.432-5.4,1.606Z" transform="translate(404.462 -24.166)"/></g><ellipse class="d" cx="20.646" cy="25.671" rx="20.646" ry="25.671" transform="translate(0 67.549)"/></g></g><g transform="translate(87.989 68.88)"><g transform="translate(4.265)"><rect class="n" width="181.579" height="121.658" rx="2.833" transform="translate(181.579 121.658) rotate(-180)"/><g transform="translate(66.546 19.626)"><path class="o" d="M-403.736,15A26.806,26.806,0,0,1-390.4,18.125a21.989,21.989,0,0,1,8.419,7.994,22.162,22.162,0,0,1,3.188,9.926,1.9,1.9,0,0,1-.644,1.675,2.471,2.471,0,0,1-1.731.7h-4.644a2.8,2.8,0,0,1-1.781-.644,2.92,2.92,0,0,1-1.025-1.731q-1.5-6.038-5.394-8.957a15.75,15.75,0,0,0-9.719-2.919,17.613,17.613,0,0,0-10.357,3.025,9.508,9.508,0,0,0-4.319,8.207,11.506,11.506,0,0,0,2.212,7.069,45.437,45.437,0,0,0,6.744,6.857q3.563,3.235,5.669,5.5a21.021,21.021,0,0,1,3.613,5.563A17.993,17.993,0,0,1-398.661,68v2.263a2.8,2.8,0,0,1-.863,2.05,2.8,2.8,0,0,1-2.05.863h-3.994a2.807,2.807,0,0,1-2.05-.863,2.8,2.8,0,0,1-.869-2.05V68.754a12.884,12.884,0,0,0-2.263-7.769,44.2,44.2,0,0,0-6.907-7.126,58.475,58.475,0,0,1-5.563-5.238,20.672,20.672,0,0,1-3.557-5.613,18.578,18.578,0,0,1-1.463-7.607,18.155,18.155,0,0,1,3.188-10.419,21.392,21.392,0,0,1,8.738-7.338A28.934,28.934,0,0,1-403.736,15Zm-5.825,73.724v-6.15a2.8,2.8,0,0,1,.863-2.05,2.818,2.818,0,0,1,2.05-.863h6.156a2.8,2.8,0,0,1,2.05.863,2.8,2.8,0,0,1,.863,2.05v6.15a2.811,2.811,0,0,1-.863,2.056,2.8,2.8,0,0,1-2.05.863h-6.156a2.818,2.818,0,0,1-2.05-.863A2.811,2.811,0,0,1-409.562,88.724Z" transform="translate(428.238 -15)"/></g></g></g><g transform="translate(417.787 0)"><path class="p" d="M-368.739.84h141.86A18.065,18.065,0,0,1-208.815,18.9v83.124a18.065,18.065,0,0,1-18.064,18.064H-327.5L-365.62,147.15V120.092h-3.119A18.065,18.065,0,0,1-386.8,102.028V18.9A18.065,18.065,0,0,1-368.739.84Z" transform="translate(386.803 -0.84)"/><g transform="translate(17.28 13.676)"><path class="a" d="M-361.312,3.028" transform="translate(503.362 -3.028)"/><g transform="translate(0 17.114)"><path class="a" d="M-382.667,5.766h140.678a1.426,1.426,0,0,1,0,2.85H-382.667a1.426,1.426,0,0,1,0-2.85Z" transform="translate(384.038 -5.766)"/></g><g transform="translate(0 35.659)"><path class="a" d="M-382.667,8.733h140.678a1.423,1.423,0,0,1,0,2.844H-382.667a1.423,1.423,0,0,1,0-2.844Z" transform="translate(384.038 -8.733)"/></g><g transform="translate(42.023 54.197)"><path class="a" d="M-375.939,11.7h98.651a1.423,1.423,0,0,1,0,2.844h-98.651a1.423,1.423,0,0,1,0-2.844Z" transform="translate(377.315 -11.699)"/></g><g transform="translate(42.023 72.736)"><path class="a" d="M-375.939,14.665h98.651a1.423,1.423,0,0,1,0,2.844h-98.651a1.423,1.423,0,0,1,0-2.844Z" transform="translate(377.315 -14.665)"/></g></g></g><g transform="translate(498.599 149.523)"><path class="p" d="M-362.136,24.762h92.156A11.739,11.739,0,0,1-258.247,36.5v54a11.739,11.739,0,0,1-11.732,11.738h-65.367l-24.764,17.576V102.236h-2.025A11.74,11.74,0,0,1-373.874,90.5v-54A11.74,11.74,0,0,1-362.136,24.762Z" transform="translate(373.874 -24.762)"/><g transform="translate(11.226 8.882)"><path class="a" d="M-357.314,26.183" transform="translate(449.595 -26.183)"/><g transform="translate(0 11.126)"><path class="a" d="M-371.185,27.963H-279.8a.922.922,0,0,1,0,1.844h-91.387a.922.922,0,0,1,0-1.844Z" transform="translate(372.078 -27.963)"/></g><g transform="translate(0 23.164)"><path class="a" d="M-371.185,29.889H-279.8a.926.926,0,0,1,0,1.85h-91.387a.926.926,0,0,1,0-1.85Z" transform="translate(372.078 -29.889)"/></g><g transform="translate(27.3 35.209)"><path class="a" d="M-366.815,31.816h64.086a.926.926,0,0,1,0,1.85h-64.086a.926.926,0,0,1,0-1.85Z" transform="translate(367.71 -31.816)"/></g><g transform="translate(27.3 47.253)"><path class="a" d="M-366.815,33.743h64.086a.926.926,0,0,1,0,1.85h-64.086a.926.926,0,0,1,0-1.85Z" transform="translate(367.71 -33.743)"/></g></g></g><g transform="translate(188.638 320.516)"><path class="e" d="M-328.088,53.325c-27.039,1.144-56.3,9.307-76.093,27.764a13.878,13.878,0,0,0-4.05,5.444c-1.069,3.169.025,6.613,1.038,9.8a199.987,199.987,0,0,1,1.788,114.277c-2.763,9.732-6.282,19.351-7.232,29.421s1.05,20.977,8.013,28.314a37.9,37.9,0,0,0,10.632,7.469c21.645,10.938,47.059,10.532,71.292,9.526,14.945-.619,30.033-1.4,44.416-5.488s28.2-11.813,36.934-23.945c9.02-12.52,11.838-28.421,12.989-43.8,2.6-34.94-2.137-69.98-2.794-105.007-.194-10.194.019-20.689,3.994-30.077-18.464-12.763-40.528-20.52-62.542-24.9-4.725,6.294-11.363,9.163-19.226,9.563s-13.813-2.575-19.158-8.357" transform="translate(479.145 -52.119)"/><path class="d" d="M-407.4,170.349c.875-10.076-6.275-21.727-3.725-31.458,6.476-24.733,18.683-48.791,16.057-74.336,5.551,2.781,10.582,6.463,13.445,11.945,2.35,4.513,2.957,9.757,3.013,14.87.113,10.207-1.788,20.333-2.194,30.533s.875,20.951,6.619,29.3c6.632,9.644,18.064,14.507,29.215,17.495a221.707,221.707,0,0,0,22.82,4.594c8.807,1.394,17.77,2.556,26.614,1.419s17.676-4.819,23.489-11.726c9.213-10.957,8.938-26.864,10.595-41.215A128.936,128.936,0,0,1-247.519,76.63c2.206-4.188,4.8-8.413,8.788-10.869l.031-.019c1.369,25.583,16.176,52.447,14.42,77.968-1.056,15.389-16.614,30-24.939,42.509-8.069,12.138-20.826,19.864-34.109,23.952s-27.221,4.863-41.015,5.488c-22.376,1.006-45.847,1.413-65.836-9.526a35.275,35.275,0,0,1-9.82-7.469C-406.423,191.319-408.273,180.418-407.4,170.349Z" transform="translate(485.356 13.17)"/><path class="e" d="M-334.9,54.992c-8.351,37.128-1.156,80.937,8.119,117.846,2.757,10.963,2.175,22.983-1.756,28.558-4.069,5.775-11.088,9.219-17.5,12.176-14.907,6.869-25.264,14.976-36.646,26.808-4.557,4.738-8.738,10.082-10.707,16.357s-1.4,13.651,2.794,18.714c4.013,4.844,10.638,6.851,16.926,6.844s12.42-1.75,18.545-3.181a194.707,194.707,0,0,1,31.2-4.675c9.088-.619,18.339-.613,27.083-3.175,12.445-3.644,23.133-12.5,29.683-23.689a62.133,62.133,0,0,0,7.738-37.465,129.586,129.586,0,0,0-4.257-20.389c-7.469-27.8-17.764-52.141-27.2-79.337-3.863-11.132-10.957-23.7-17.757-33.315s-14.657-20.1-26.271-22.077" transform="translate(575.628 -37.034)"/><path class="g" d="M-383.883,89.837s24.852-6.169,34.152-.844,23.42,13.1,23,23l.006,4.057s-66.629,1.944-72.042-4.057" transform="translate(553.147 130.115)"/><path class="e" d="M-328.455,54.545c-12.195,1.413-25.527,15.62-33.965,27.908s-14.182,26.177-19.858,39.959L-414.161,199.8c-3.294,8-6.606,16.064-8.207,24.564a63.567,63.567,0,0,0-.356,21.427c.9,5.813,2.681,11.638,6.319,16.257,5.138,6.538,13.251,9.863,21.02,12.82,16.4,6.232,33.227,12.082,50.735,13.288a196.066,196.066,0,0,0,20.733-.031c19.083-.694,38.253-1.4,57.035-4.882a8.682,8.682,0,0,0,3.838-1.381,8.887,8.887,0,0,0,2.35-3.507l5.663-12.388c1.056-2.306,2.138-4.738,1.931-7.263-.269-3.394-2.763-6.144-5.263-8.457a83.58,83.58,0,0,0-22.47-14.851c-16.92-7.594-36.246-9.494-52.147-19.045a24.661,24.661,0,0,1-5.344-4.069c-5.863-6.225-5.513-16.245-2.225-24.133s5.588-15.42,8.82-23.339c7.175-17.6,10.763-29.09,11.157-44.134.563-21.42-1.044-45.822-7.882-66.13" transform="translate(423.464 -39.381)"/></g><rect class="a" width="863.505" height="16.231" rx="1.248" transform="translate(874 588.746) rotate(-180)"/><g transform="translate(242.358 392.992)"><rect class="a" width="303.072" height="7.539" rx="0.206" transform="translate(303.072 179.522) rotate(-180)"/><path class="a" d="M-387.659,243.237h258.567L-116.6,63.714H-369.989Z" transform="translate(557.738 -63.714)"/><g transform="translate(178.872)"><path class="f" d="M-386.252,243.237h258.567l12.491-179.522H-368.582Z" transform="translate(386.252 -63.714)"/><circle class="q" cx="15.44" cy="15.44" r="15.44" transform="translate(120.089 74.321)"/><path class="r" d="M-117.365,68.679-127.684,217.02H-386.252l3.45-35.065C-246.7,164.361-152.967,97.975-117.365,68.679Z" transform="translate(386.253 -37.648)"/></g></g></g></g></svg>