<svg xmlns="http://www.w3.org/2000/svg" width="274.925" height="472.652" viewBox="0 0 274.925 472.652"><defs><style>.a{fill:#fff;}</style></defs><g transform="translate(6825.926 -883) rotate(90)"><g transform="translate(883 6551.001)"><path class="a" d="M890.477,330.968a5.643,5.643,0,0,0-8.8,4.677h0v0a5.643,5.643,0,1,0,11.286,0v0h0A5.636,5.636,0,0,0,890.477,330.968Z" transform="translate(-881.68 -198.185)"/><path class="a" d="M901.3,330.968a5.643,5.643,0,0,0-8.8,4.677h0v0a5.643,5.643,0,1,0,11.286,0v0h0A5.636,5.636,0,0,0,901.3,330.968Z" transform="translate(-859.547 -198.185)"/><path class="a" d="M912.122,330.968a5.643,5.643,0,0,0-8.8,4.677h0v0a5.643,5.643,0,1,0,11.286,0v0h0A5.636,5.636,0,0,0,912.122,330.968Z" transform="translate(-837.413 -198.185)"/><path class="a" d="M922.944,330.968a5.643,5.643,0,0,0-8.8,4.677h0v0a5.643,5.643,0,0,0,11.286,0v0h0A5.636,5.636,0,0,0,922.944,330.968Z" transform="translate(-815.28 -198.185)"/><path class="a" d="M933.767,330.968a5.644,5.644,0,0,0-8.8,4.677h0v0a5.644,5.644,0,0,0,11.289,0v0h0A5.643,5.643,0,0,0,933.767,330.968Z" transform="translate(-793.148 -198.185)"/><path class="a" d="M944.587,330.968a5.643,5.643,0,0,0-8.8,4.677h0v0a5.643,5.643,0,1,0,11.285,0v0h0A5.635,5.635,0,0,0,944.587,330.968Z" transform="translate(-771.015 -198.185)"/><path class="a" d="M955.409,330.968a5.643,5.643,0,0,0-8.8,4.677h0v0a5.643,5.643,0,1,0,11.285,0v0h0A5.636,5.636,0,0,0,955.409,330.968Z" transform="translate(-748.882 -198.185)"/><path class="a" d="M887.323,340.825a5.643,5.643,0,1,0,5.643,5.643A5.644,5.644,0,0,0,887.323,340.825Z" transform="translate(-881.68 -176.051)"/><path class="a" d="M898.145,340.825a5.643,5.643,0,1,0,5.643,5.643A5.644,5.644,0,0,0,898.145,340.825Z" transform="translate(-859.547 -176.051)"/><path class="a" d="M908.967,340.825a5.643,5.643,0,1,0,5.643,5.643A5.644,5.644,0,0,0,908.967,340.825Z" transform="translate(-837.413 -176.051)"/><path class="a" d="M919.789,340.825a5.643,5.643,0,1,0,5.643,5.643A5.642,5.642,0,0,0,919.789,340.825Z" transform="translate(-815.28 -176.051)"/><path class="a" d="M930.613,340.825a5.643,5.643,0,1,0,5.643,5.643A5.645,5.645,0,0,0,930.613,340.825Z" transform="translate(-793.148 -176.051)"/><path class="a" d="M941.432,340.825a5.643,5.643,0,1,0,5.643,5.643A5.644,5.644,0,0,0,941.432,340.825Z" transform="translate(-771.015 -176.051)"/><path class="a" d="M952.254,340.825a5.643,5.643,0,1,0,5.643,5.643A5.644,5.644,0,0,0,952.254,340.825Z" transform="translate(-748.882 -176.051)"/><path class="a" d="M887.323,351.647a5.643,5.643,0,1,0,5.643,5.643A5.644,5.644,0,0,0,887.323,351.647Z" transform="translate(-881.68 -153.918)"/><path class="a" d="M898.145,351.647a5.643,5.643,0,1,0,5.643,5.643A5.644,5.644,0,0,0,898.145,351.647Z" transform="translate(-859.547 -153.918)"/><path class="a" d="M908.967,351.647a5.643,5.643,0,1,0,5.643,5.643A5.644,5.644,0,0,0,908.967,351.647Z" transform="translate(-837.413 -153.918)"/><path class="a" d="M919.789,351.647a5.643,5.643,0,1,0,5.643,5.643A5.642,5.642,0,0,0,919.789,351.647Z" transform="translate(-815.28 -153.918)"/><path class="a" d="M930.613,351.647a5.643,5.643,0,1,0,5.643,5.643A5.645,5.645,0,0,0,930.613,351.647Z" transform="translate(-793.148 -153.918)"/><path class="a" d="M941.432,351.647a5.643,5.643,0,1,0,5.643,5.643A5.644,5.644,0,0,0,941.432,351.647Z" transform="translate(-771.015 -153.918)"/><path class="a" d="M952.254,351.647a5.643,5.643,0,1,0,5.643,5.643A5.644,5.644,0,0,0,952.254,351.647Z" transform="translate(-748.882 -153.918)"/><path class="a" d="M887.323,362.469a5.643,5.643,0,1,0,5.643,5.643A5.642,5.642,0,0,0,887.323,362.469Z" transform="translate(-881.68 -131.785)"/><path class="a" d="M898.145,362.469a5.643,5.643,0,1,0,5.643,5.643A5.642,5.642,0,0,0,898.145,362.469Z" transform="translate(-859.547 -131.785)"/><path class="a" d="M908.967,362.469a5.643,5.643,0,1,0,5.643,5.643A5.642,5.642,0,0,0,908.967,362.469Z" transform="translate(-837.413 -131.785)"/><path class="a" d="M919.789,362.469a5.643,5.643,0,1,0,5.643,5.643A5.64,5.64,0,0,0,919.789,362.469Z" transform="translate(-815.28 -131.785)"/><path class="a" d="M930.613,362.469a5.643,5.643,0,1,0,5.643,5.643A5.643,5.643,0,0,0,930.613,362.469Z" transform="translate(-793.148 -131.785)"/><path class="a" d="M941.432,362.469a5.643,5.643,0,1,0,5.643,5.643A5.642,5.642,0,0,0,941.432,362.469Z" transform="translate(-771.015 -131.785)"/><path class="a" d="M952.254,362.469a5.643,5.643,0,1,0,5.643,5.643A5.642,5.642,0,0,0,952.254,362.469Z" transform="translate(-748.882 -131.785)"/><path class="a" d="M887.323,373.29a5.644,5.644,0,1,0,5.643,5.646A5.645,5.645,0,0,0,887.323,373.29Z" transform="translate(-881.68 -109.653)"/><path class="a" d="M898.145,373.29a5.644,5.644,0,1,0,5.643,5.646A5.645,5.645,0,0,0,898.145,373.29Z" transform="translate(-859.547 -109.653)"/><path class="a" d="M908.967,373.29a5.644,5.644,0,1,0,5.643,5.646A5.645,5.645,0,0,0,908.967,373.29Z" transform="translate(-837.413 -109.653)"/><path class="a" d="M919.789,373.29a5.644,5.644,0,1,0,5.643,5.646A5.643,5.643,0,0,0,919.789,373.29Z" transform="translate(-815.28 -109.653)"/><path class="a" d="M930.613,373.29a5.644,5.644,0,1,0,5.643,5.646A5.646,5.646,0,0,0,930.613,373.29Z" transform="translate(-793.148 -109.653)"/><path class="a" d="M941.432,373.29a5.644,5.644,0,1,0,5.643,5.646A5.645,5.645,0,0,0,941.432,373.29Z" transform="translate(-771.015 -109.653)"/><path class="a" d="M952.254,373.29a5.644,5.644,0,1,0,5.643,5.646A5.645,5.645,0,0,0,952.254,373.29Z" transform="translate(-748.882 -109.653)"/><path class="a" d="M887.323,286.716a5.643,5.643,0,1,0,5.643,5.643A5.644,5.644,0,0,0,887.323,286.716Z" transform="translate(-881.68 -286.716)"/><path class="a" d="M898.145,286.716a5.643,5.643,0,1,0,5.643,5.643A5.644,5.644,0,0,0,898.145,286.716Z" transform="translate(-859.547 -286.716)"/><path class="a" d="M908.967,286.716a5.643,5.643,0,1,0,5.643,5.643A5.644,5.644,0,0,0,908.967,286.716Z" transform="translate(-837.413 -286.716)"/><path class="a" d="M919.789,286.716a5.643,5.643,0,1,0,5.643,5.643A5.642,5.642,0,0,0,919.789,286.716Z" transform="translate(-815.28 -286.716)"/><path class="a" d="M930.613,286.716a5.643,5.643,0,1,0,5.643,5.643A5.645,5.645,0,0,0,930.613,286.716Z" transform="translate(-793.148 -286.716)"/><path class="a" d="M941.432,286.716a5.643,5.643,0,1,0,5.643,5.643A5.644,5.644,0,0,0,941.432,286.716Z" transform="translate(-771.015 -286.716)"/><path class="a" d="M952.254,286.716a5.643,5.643,0,1,0,5.643,5.643A5.644,5.644,0,0,0,952.254,286.716Z" transform="translate(-748.882 -286.716)"/><path class="a" d="M887.323,297.538a5.643,5.643,0,1,0,5.643,5.643A5.644,5.644,0,0,0,887.323,297.538Z" transform="translate(-881.68 -264.583)"/><path class="a" d="M898.145,297.538a5.643,5.643,0,1,0,5.643,5.643A5.644,5.644,0,0,0,898.145,297.538Z" transform="translate(-859.547 -264.583)"/><path class="a" d="M908.967,297.538a5.643,5.643,0,1,0,5.643,5.643A5.644,5.644,0,0,0,908.967,297.538Z" transform="translate(-837.413 -264.583)"/><path class="a" d="M919.789,297.538a5.643,5.643,0,1,0,5.643,5.643A5.642,5.642,0,0,0,919.789,297.538Z" transform="translate(-815.28 -264.583)"/><path class="a" d="M930.613,297.538a5.643,5.643,0,1,0,5.643,5.643A5.645,5.645,0,0,0,930.613,297.538Z" transform="translate(-793.148 -264.583)"/><path class="a" d="M941.432,297.538a5.643,5.643,0,1,0,5.643,5.643A5.644,5.644,0,0,0,941.432,297.538Z" transform="translate(-771.015 -264.583)"/><path class="a" d="M952.254,297.538a5.643,5.643,0,1,0,5.643,5.643A5.644,5.644,0,0,0,952.254,297.538Z" transform="translate(-748.882 -264.583)"/><path class="a" d="M887.323,308.36A5.643,5.643,0,1,0,892.965,314,5.644,5.644,0,0,0,887.323,308.36Z" transform="translate(-881.68 -242.449)"/><path class="a" d="M898.145,308.36A5.643,5.643,0,1,0,903.788,314,5.644,5.644,0,0,0,898.145,308.36Z" transform="translate(-859.547 -242.449)"/><path class="a" d="M908.967,308.36A5.643,5.643,0,1,0,914.61,314,5.644,5.644,0,0,0,908.967,308.36Z" transform="translate(-837.413 -242.449)"/><path class="a" d="M919.789,308.36A5.643,5.643,0,1,0,925.432,314,5.642,5.642,0,0,0,919.789,308.36Z" transform="translate(-815.28 -242.449)"/><path class="a" d="M930.613,308.36A5.643,5.643,0,1,0,936.256,314,5.645,5.645,0,0,0,930.613,308.36Z" transform="translate(-793.148 -242.449)"/><path class="a" d="M941.432,308.36A5.643,5.643,0,1,0,947.074,314,5.644,5.644,0,0,0,941.432,308.36Z" transform="translate(-771.015 -242.449)"/><path class="a" d="M952.254,308.36A5.643,5.643,0,1,0,957.9,314,5.644,5.644,0,0,0,952.254,308.36Z" transform="translate(-748.882 -242.449)"/><path class="a" d="M887.323,319.182a5.643,5.643,0,1,0,5.643,5.643A5.642,5.642,0,0,0,887.323,319.182Z" transform="translate(-881.68 -220.316)"/><path class="a" d="M898.145,319.182a5.643,5.643,0,1,0,5.643,5.643A5.642,5.642,0,0,0,898.145,319.182Z" transform="translate(-859.547 -220.316)"/><path class="a" d="M908.967,319.182a5.643,5.643,0,1,0,5.643,5.643A5.642,5.642,0,0,0,908.967,319.182Z" transform="translate(-837.413 -220.316)"/><path class="a" d="M919.789,319.182a5.643,5.643,0,1,0,5.643,5.643A5.64,5.64,0,0,0,919.789,319.182Z" transform="translate(-815.28 -220.316)"/><path class="a" d="M930.613,319.182a5.643,5.643,0,1,0,5.643,5.643A5.643,5.643,0,0,0,930.613,319.182Z" transform="translate(-793.148 -220.316)"/><path class="a" d="M941.432,319.182a5.643,5.643,0,1,0,5.643,5.643A5.642,5.642,0,0,0,941.432,319.182Z" transform="translate(-771.015 -220.316)"/><path class="a" d="M952.254,319.182a5.643,5.643,0,1,0,5.643,5.643A5.642,5.642,0,0,0,952.254,319.182Z" transform="translate(-748.882 -220.316)"/><path class="a" d="M967.753,332.491a5.657,5.657,0,0,0-1.523-1.523,5.643,5.643,0,0,0-8.8,4.677h0v0a5.643,5.643,0,0,0,11.285,0v0h0A5.619,5.619,0,0,0,967.753,332.491Z" transform="translate(-726.748 -198.185)"/><path class="a" d="M977.052,330.968a5.643,5.643,0,0,0-8.8,4.677h0v0a5.643,5.643,0,0,0,11.285,0v0h0A5.635,5.635,0,0,0,977.052,330.968Z" transform="translate(-704.615 -198.185)"/><path class="a" d="M987.874,330.968a5.643,5.643,0,0,0-8.8,4.677h0v0a5.643,5.643,0,1,0,11.285,0v0h0A5.636,5.636,0,0,0,987.874,330.968Z" transform="translate(-682.484 -198.185)"/><path class="a" d="M998.7,330.968a5.643,5.643,0,0,0-8.8,4.677h0v0a5.643,5.643,0,1,0,11.286,0v0h0A5.636,5.636,0,0,0,998.7,330.968Z" transform="translate(-660.35 -198.185)"/><path class="a" d="M1009.518,330.968a5.643,5.643,0,0,0-8.8,4.677h0v0a5.643,5.643,0,1,0,11.286,0v0h0A5.636,5.636,0,0,0,1009.518,330.968Z" transform="translate(-638.217 -198.185)"/><path class="a" d="M1020.339,330.968a5.643,5.643,0,0,0-8.8,4.677h0v0a5.643,5.643,0,0,0,11.286,0v0h0A5.636,5.636,0,0,0,1020.339,330.968Z" transform="translate(-616.083 -198.185)"/><path class="a" d="M1031.163,330.968a5.645,5.645,0,0,0-8.8,4.677h0v0a5.644,5.644,0,0,0,11.289,0v0h0A5.644,5.644,0,0,0,1031.163,330.968Z" transform="translate(-593.952 -198.185)"/><path class="a" d="M1041.982,330.968a5.642,5.642,0,0,0-8.8,4.677h0v0a5.643,5.643,0,1,0,11.285,0v0h0A5.636,5.636,0,0,0,1041.982,330.968Z" transform="translate(-571.819 -198.185)"/><path class="a" d="M964.212,340.941a5.577,5.577,0,0,0-1.136-.116,5.643,5.643,0,0,0,0,11.286,5.789,5.789,0,0,0,1.136-.113,5.644,5.644,0,0,0,0-11.057Z" transform="translate(-726.748 -176.051)"/><path class="a" d="M973.9,340.825a5.643,5.643,0,1,0,5.643,5.643A5.642,5.642,0,0,0,973.9,340.825Z" transform="translate(-704.615 -176.051)"/><path class="a" d="M984.719,340.825a5.643,5.643,0,1,0,5.642,5.643A5.644,5.644,0,0,0,984.719,340.825Z" transform="translate(-682.484 -176.051)"/><path class="a" d="M995.541,340.825a5.643,5.643,0,1,0,5.643,5.643A5.644,5.644,0,0,0,995.541,340.825Z" transform="translate(-660.35 -176.051)"/><path class="a" d="M1006.363,340.825a5.643,5.643,0,1,0,5.643,5.643A5.644,5.644,0,0,0,1006.363,340.825Z" transform="translate(-638.217 -176.051)"/><path class="a" d="M1017.185,340.825a5.643,5.643,0,1,0,5.642,5.643A5.642,5.642,0,0,0,1017.185,340.825Z" transform="translate(-616.083 -176.051)"/><path class="a" d="M1028.009,340.825a5.643,5.643,0,1,0,5.643,5.643A5.645,5.645,0,0,0,1028.009,340.825Z" transform="translate(-593.952 -176.051)"/><path class="a" d="M1038.827,340.825a5.643,5.643,0,1,0,5.643,5.643A5.644,5.644,0,0,0,1038.827,340.825Z" transform="translate(-571.819 -176.051)"/><path class="a" d="M964.212,351.763a5.577,5.577,0,0,0-1.136-.116,5.643,5.643,0,0,0,0,11.286,5.574,5.574,0,0,0,1.136-.116,5.643,5.643,0,0,0,0-11.054Z" transform="translate(-726.748 -153.918)"/><path class="a" d="M973.9,351.647a5.643,5.643,0,1,0,5.643,5.643A5.642,5.642,0,0,0,973.9,351.647Z" transform="translate(-704.615 -153.918)"/><path class="a" d="M984.719,351.647a5.643,5.643,0,1,0,5.642,5.643A5.644,5.644,0,0,0,984.719,351.647Z" transform="translate(-682.484 -153.918)"/><path class="a" d="M995.541,351.647a5.643,5.643,0,1,0,5.643,5.643A5.644,5.644,0,0,0,995.541,351.647Z" transform="translate(-660.35 -153.918)"/><path class="a" d="M1006.363,351.647a5.643,5.643,0,1,0,5.643,5.643A5.644,5.644,0,0,0,1006.363,351.647Z" transform="translate(-638.217 -153.918)"/><path class="a" d="M1017.185,351.647a5.643,5.643,0,1,0,5.642,5.643A5.642,5.642,0,0,0,1017.185,351.647Z" transform="translate(-616.083 -153.918)"/><path class="a" d="M1028.009,351.647a5.643,5.643,0,1,0,5.643,5.643A5.645,5.645,0,0,0,1028.009,351.647Z" transform="translate(-593.952 -153.918)"/><path class="a" d="M1038.827,351.647a5.643,5.643,0,1,0,5.643,5.643A5.644,5.644,0,0,0,1038.827,351.647Z" transform="translate(-571.819 -153.918)"/><path class="a" d="M964.212,362.582a5.787,5.787,0,0,0-1.136-.113,5.643,5.643,0,0,0,0,11.286,5.574,5.574,0,0,0,1.136-.116,5.645,5.645,0,0,0,0-11.057Z" transform="translate(-726.748 -131.785)"/><path class="a" d="M973.9,362.469a5.643,5.643,0,1,0,5.643,5.643A5.64,5.64,0,0,0,973.9,362.469Z" transform="translate(-704.615 -131.785)"/><path class="a" d="M984.719,362.469a5.643,5.643,0,1,0,5.642,5.643A5.642,5.642,0,0,0,984.719,362.469Z" transform="translate(-682.484 -131.785)"/><path class="a" d="M995.541,362.469a5.643,5.643,0,1,0,5.643,5.643A5.642,5.642,0,0,0,995.541,362.469Z" transform="translate(-660.35 -131.785)"/><path class="a" d="M1006.363,362.469a5.643,5.643,0,1,0,5.643,5.643A5.642,5.642,0,0,0,1006.363,362.469Z" transform="translate(-638.217 -131.785)"/><path class="a" d="M1017.185,362.469a5.643,5.643,0,1,0,5.642,5.643A5.64,5.64,0,0,0,1017.185,362.469Z" transform="translate(-616.083 -131.785)"/><path class="a" d="M1028.009,362.469a5.643,5.643,0,1,0,5.643,5.643A5.643,5.643,0,0,0,1028.009,362.469Z" transform="translate(-593.952 -131.785)"/><path class="a" d="M1038.827,362.469a5.643,5.643,0,1,0,5.643,5.643A5.642,5.642,0,0,0,1038.827,362.469Z" transform="translate(-571.819 -131.785)"/><path class="a" d="M964.212,373.406a5.574,5.574,0,0,0-1.136-.116,5.644,5.644,0,0,0,0,11.289,5.57,5.57,0,0,0,1.136-.116,5.644,5.644,0,0,0,0-11.057Z" transform="translate(-726.748 -109.653)"/><path class="a" d="M973.9,373.29a5.644,5.644,0,1,0,5.643,5.646A5.643,5.643,0,0,0,973.9,373.29Z" transform="translate(-704.615 -109.653)"/><path class="a" d="M984.719,373.29a5.644,5.644,0,1,0,5.642,5.646A5.645,5.645,0,0,0,984.719,373.29Z" transform="translate(-682.484 -109.653)"/><path class="a" d="M995.541,373.29a5.644,5.644,0,1,0,5.643,5.646A5.645,5.645,0,0,0,995.541,373.29Z" transform="translate(-660.35 -109.653)"/><path class="a" d="M1006.363,373.29a5.644,5.644,0,1,0,5.643,5.646A5.645,5.645,0,0,0,1006.363,373.29Z" transform="translate(-638.217 -109.653)"/><path class="a" d="M1017.185,373.29a5.644,5.644,0,1,0,5.642,5.646A5.643,5.643,0,0,0,1017.185,373.29Z" transform="translate(-616.083 -109.653)"/><path class="a" d="M1028.009,373.29a5.644,5.644,0,1,0,5.643,5.646A5.646,5.646,0,0,0,1028.009,373.29Z" transform="translate(-593.952 -109.653)"/><path class="a" d="M1038.827,373.29a5.644,5.644,0,1,0,5.643,5.646A5.645,5.645,0,0,0,1038.827,373.29Z" transform="translate(-571.819 -109.653)"/><path class="a" d="M964.212,286.832a5.574,5.574,0,0,0-1.136-.116,5.643,5.643,0,0,0,0,11.286,5.8,5.8,0,0,0,1.136-.113,5.645,5.645,0,0,0,0-11.057Z" transform="translate(-726.748 -286.716)"/><path class="a" d="M973.9,286.716a5.643,5.643,0,1,0,5.643,5.643A5.642,5.642,0,0,0,973.9,286.716Z" transform="translate(-704.615 -286.716)"/><path class="a" d="M984.719,286.716a5.643,5.643,0,1,0,5.642,5.643A5.644,5.644,0,0,0,984.719,286.716Z" transform="translate(-682.484 -286.716)"/><path class="a" d="M995.541,286.716a5.643,5.643,0,1,0,5.643,5.643A5.644,5.644,0,0,0,995.541,286.716Z" transform="translate(-660.35 -286.716)"/><path class="a" d="M1006.363,286.716a5.643,5.643,0,1,0,5.643,5.643A5.644,5.644,0,0,0,1006.363,286.716Z" transform="translate(-638.217 -286.716)"/><path class="a" d="M1017.185,286.716a5.643,5.643,0,1,0,5.642,5.643A5.642,5.642,0,0,0,1017.185,286.716Z" transform="translate(-616.083 -286.716)"/><path class="a" d="M1028.009,286.716a5.643,5.643,0,1,0,5.643,5.643A5.645,5.645,0,0,0,1028.009,286.716Z" transform="translate(-593.952 -286.716)"/><path class="a" d="M1038.827,298a5.643,5.643,0,1,0-5.642-5.643A5.64,5.64,0,0,0,1038.827,298Z" transform="translate(-571.819 -286.716)"/><path class="a" d="M964.212,297.654a5.568,5.568,0,0,0-1.136-.116,5.643,5.643,0,0,0,0,11.286,5.8,5.8,0,0,0,1.136-.113,5.644,5.644,0,0,0,0-11.057Z" transform="translate(-726.748 -264.583)"/><path class="a" d="M973.9,297.538a5.643,5.643,0,1,0,5.643,5.643A5.642,5.642,0,0,0,973.9,297.538Z" transform="translate(-704.615 -264.583)"/><path class="a" d="M984.719,297.538a5.643,5.643,0,1,0,5.642,5.643A5.644,5.644,0,0,0,984.719,297.538Z" transform="translate(-682.484 -264.583)"/><path class="a" d="M995.541,297.538a5.643,5.643,0,1,0,5.643,5.643A5.644,5.644,0,0,0,995.541,297.538Z" transform="translate(-660.35 -264.583)"/><path class="a" d="M1006.363,297.538a5.643,5.643,0,1,0,5.643,5.643A5.644,5.644,0,0,0,1006.363,297.538Z" transform="translate(-638.217 -264.583)"/><path class="a" d="M1017.185,297.538a5.643,5.643,0,1,0,5.642,5.643A5.643,5.643,0,0,0,1017.185,297.538Z" transform="translate(-616.083 -264.583)"/><path class="a" d="M1028.009,297.538a5.643,5.643,0,1,0,5.643,5.643A5.645,5.645,0,0,0,1028.009,297.538Z" transform="translate(-593.952 -264.583)"/><path class="a" d="M1038.827,297.538a5.643,5.643,0,1,0,5.643,5.643A5.644,5.644,0,0,0,1038.827,297.538Z" transform="translate(-571.819 -264.583)"/><path class="a" d="M964.212,308.476a5.57,5.57,0,0,0-1.136-.116,5.643,5.643,0,0,0,0,11.286,5.574,5.574,0,0,0,1.136-.116,5.643,5.643,0,0,0,0-11.054Z" transform="translate(-726.748 -242.449)"/><path class="a" d="M973.9,308.36A5.643,5.643,0,1,0,979.54,314,5.642,5.642,0,0,0,973.9,308.36Z" transform="translate(-704.615 -242.449)"/><path class="a" d="M984.719,308.36A5.643,5.643,0,1,0,990.361,314,5.644,5.644,0,0,0,984.719,308.36Z" transform="translate(-682.484 -242.449)"/><path class="a" d="M995.541,308.36a5.643,5.643,0,1,0,5.643,5.643A5.644,5.644,0,0,0,995.541,308.36Z" transform="translate(-660.35 -242.449)"/><path class="a" d="M1006.363,308.36a5.643,5.643,0,1,0,5.643,5.643A5.644,5.644,0,0,0,1006.363,308.36Z" transform="translate(-638.217 -242.449)"/><path class="a" d="M1017.185,308.36a5.643,5.643,0,1,0,5.642,5.643A5.642,5.642,0,0,0,1017.185,308.36Z" transform="translate(-616.083 -242.449)"/><path class="a" d="M1028.009,308.36a5.643,5.643,0,1,0,5.643,5.643A5.645,5.645,0,0,0,1028.009,308.36Z" transform="translate(-593.952 -242.449)"/><path class="a" d="M1038.827,308.36A5.643,5.643,0,1,0,1044.47,314,5.644,5.644,0,0,0,1038.827,308.36Z" transform="translate(-571.819 -242.449)"/><path class="a" d="M964.212,319.295a5.8,5.8,0,0,0-1.136-.113,5.643,5.643,0,0,0,0,11.286,5.574,5.574,0,0,0,1.136-.116,5.645,5.645,0,0,0,0-11.057Z" transform="translate(-726.748 -220.316)"/><path class="a" d="M973.9,319.182a5.643,5.643,0,1,0,5.643,5.643A5.64,5.64,0,0,0,973.9,319.182Z" transform="translate(-704.615 -220.316)"/><path class="a" d="M984.719,319.182a5.643,5.643,0,1,0,5.642,5.643A5.642,5.642,0,0,0,984.719,319.182Z" transform="translate(-682.484 -220.316)"/><path class="a" d="M995.541,319.182a5.643,5.643,0,1,0,5.643,5.643A5.642,5.642,0,0,0,995.541,319.182Z" transform="translate(-660.35 -220.316)"/><path class="a" d="M1006.363,319.182a5.643,5.643,0,1,0,5.643,5.643A5.642,5.642,0,0,0,1006.363,319.182Z" transform="translate(-638.217 -220.316)"/><path class="a" d="M1017.185,319.182a5.643,5.643,0,1,0,5.642,5.643A5.64,5.64,0,0,0,1017.185,319.182Z" transform="translate(-616.083 -220.316)"/><path class="a" d="M1028.009,319.182a5.643,5.643,0,1,0,5.643,5.643A5.643,5.643,0,0,0,1028.009,319.182Z" transform="translate(-593.952 -220.316)"/><path class="a" d="M1038.827,319.182a5.643,5.643,0,1,0,5.643,5.643A5.642,5.642,0,0,0,1038.827,319.182Z" transform="translate(-571.819 -220.316)"/></g></g></svg>