<svg xmlns="http://www.w3.org/2000/svg" width="37.111" height="37.111" viewBox="0 0 37.111 37.111"><defs><style>.a{fill:#fff;}</style></defs><path class="a" d="M37.111,18.556A18.555,18.555,0,1,0,18.555,37.111,18.556,18.556,0,0,0,37.111,18.556Zm-35.424,0A16.869,16.869,0,1,1,18.555,35.424,16.868,16.868,0,0,1,1.687,18.556Z"/><path class="a" d="M229.52,151.247v-10.71h3.534l.558-3.549H229.52v-1.78c0-.926.3-1.81,1.633-1.81h2.657v-3.542h-3.772c-3.171,0-4.037,2.088-4.037,4.983v2.147h-2.176v3.551H226v10.71Z" transform="translate(-210.253 -121.982)"/></svg>