<svg xmlns="http://www.w3.org/2000/svg" width="37.036" height="37.036" viewBox="0 0 37.036 37.036"><defs><style>.a{fill:#fff;}</style></defs><path class="a" d="M159.169,169.624c0-.187,0-.372-.012-.556a8.412,8.412,0,0,0,2.042-2.2,7.841,7.841,0,0,1-2.35.643,4.2,4.2,0,0,0,1.8-2.35,7.858,7.858,0,0,1-2.6,1,4.07,4.07,0,0,0-2.986-1.409,4.134,4.134,0,0,0-4.091,4.264,4.546,4.546,0,0,0,.106.988,11.521,11.521,0,0,1-8.434-4.66,4.589,4.589,0,0,0,1.266,5.845,3.916,3.916,0,0,1-1.853-.567v.056a4.346,4.346,0,0,0,3.283,4.306,3.875,3.875,0,0,1-1.077.147,3.736,3.736,0,0,1-.769-.084,4.159,4.159,0,0,0,3.821,3.045,7.9,7.9,0,0,1-5.081,1.85,7.794,7.794,0,0,1-.976-.062,11.037,11.037,0,0,0,6.272,1.966C155.055,181.854,159.169,175.306,159.169,169.624Z" transform="translate(-132.711 -154.788)"/><path class="a" d="M37.036,18.518A18.518,18.518,0,1,0,18.518,37.036,18.518,18.518,0,0,0,37.036,18.518Zm-35.352,0A16.834,16.834,0,1,1,18.518,35.353,16.834,16.834,0,0,1,1.683,18.518Z"/></svg>