<svg xmlns="http://www.w3.org/2000/svg" width="97" height="97" viewBox="0 0 97 97"><defs><style>.a{fill:#0e77ff;}</style></defs><g transform="translate(-843 -2230)"><g transform="translate(843 2230)"><path class="a" d="M94.979,93.416a2.02,2.02,0,0,0-2.021,2.021v41.6L70.729,159.267V145.958a6.07,6.07,0,0,1,6.063-6.062h6.063a2.021,2.021,0,1,0,0-4.042H76.792a10.116,10.116,0,0,0-10.1,10.1v16.167H10.1a6.07,6.07,0,0,1-6.062-6.062V95.447c.012-1.015.358-6.073,6.062-6.073H26.271a2.021,2.021,0,0,0,0-4.042H10.1c-7.992,0-10.1,6.61-10.1,10.1v60.625a10.116,10.116,0,0,0,10.1,10.1h58.6a2,2,0,0,0,.778-.158,2.025,2.025,0,0,0,.653-.436L96.408,139.3A2.016,2.016,0,0,0,97,137.875V95.437A2.02,2.02,0,0,0,94.979,93.416Z" transform="translate(0 -69.166)"/><path class="a" d="M364.688,46.709h12.1a1.857,1.857,0,0,1,2.045,2.021V64.872a1.856,1.856,0,0,1-2.021,2.045h-7.247l2.613-2.613a2.021,2.021,0,0,0-2.858-2.858l-6.06,6.06a2.026,2.026,0,0,0,0,2.861l6.06,6.061a2.021,2.021,0,0,0,2.858-2.858l-2.613-2.613h7.247a5.892,5.892,0,0,0,6.063-6.062V48.729a5.892,5.892,0,0,0-6.062-6.062H364.688a2.021,2.021,0,0,0,0,4.042Z" transform="translate(-293.959 -34.584)"/><path class="a" d="M48.729,174.709H60.854a2.021,2.021,0,0,0,0-4.042H48.729a5.892,5.892,0,0,0-6.062,6.063V192.9a5.892,5.892,0,0,0,6.063,6.063h7.247l-2.613,2.613a2.021,2.021,0,1,0,2.858,2.858l6.06-6.061a2,2,0,0,0,.439-.659,2.027,2.027,0,0,0-.439-2.2l-6.06-6.06a2.021,2.021,0,0,0-2.858,2.858l2.613,2.613H48.729a1.849,1.849,0,0,1-2.021-2.021V176.73a1.85,1.85,0,0,1,2.021-2.021Z" transform="translate(-34.584 -138.334)"/><path class="a" d="M247.354,437.333a2.021,2.021,0,0,0,0,4.042h2.021a2.021,2.021,0,0,0,0-4.042Z" transform="translate(-198.854 -354.479)"/><path class="a" d="M292.042,437.333h-2.021a2.021,2.021,0,0,0,0,4.042h2.021a2.021,2.021,0,0,0,0-4.042Z" transform="translate(-233.438 -354.479)"/><path class="a" d="M174.709,20.208h24.25A4.046,4.046,0,0,0,203,16.167V4.042A4.046,4.046,0,0,0,198.959,0h-24.25a4.046,4.046,0,0,0-4.042,4.042V16.167A4.046,4.046,0,0,0,174.709,20.208Zm0-16.167h24.25V16.167l-24.25-.006Z" transform="translate(-138.334)"/><path class="a" d="M174.709,148.208h24.25A4.046,4.046,0,0,0,203,144.167V132.042A4.046,4.046,0,0,0,198.959,128h-24.25a4.046,4.046,0,0,0-4.042,4.042v12.125A4.046,4.046,0,0,0,174.709,148.208Zm0-16.167h24.25v12.125l-24.25-.006Z" transform="translate(-138.334 -103.75)"/><path class="a" d="M174.709,276.208h24.25A4.046,4.046,0,0,0,203,272.167V260.042A4.046,4.046,0,0,0,198.959,256h-24.25a4.046,4.046,0,0,0-4.042,4.042v12.125A4.046,4.046,0,0,0,174.709,276.208Zm0-16.167h24.25v12.125l-24.25-.006Z" transform="translate(-138.334 -207.5)"/><path class="a" d="M57.375,406.792h24.25a4.046,4.046,0,0,0,4.042-4.042v-4.042a4.046,4.046,0,0,0-4.042-4.042H57.375a4.046,4.046,0,0,0-4.042,4.042v4.042A4.046,4.046,0,0,0,57.375,406.792Zm0-8.083h24.25v4.042l-24.25-.006Z" transform="translate(-43.229 -319.896)"/><path class="a" d="M257.458,394.667h-10.1a2.021,2.021,0,1,0,0,4.042h10.1a2.021,2.021,0,1,0,0-4.042Z" transform="translate(-198.854 -319.896)"/></g></g></svg>