<svg xmlns="http://www.w3.org/2000/svg" width="504.735" height="610.691" viewBox="0 0 504.735 610.691"><defs><style>.a{fill:#fff;stroke:rgba(0,0,0,0);stroke-miterlimit:10;}</style></defs><g transform="translate(-783.76 -1185.226) rotate(28)"><g transform="translate(1473 560)"><path class="a" d="M2239.624,707.169c64.275-224.958-40.322-307.246-67.256-324.2-26.932,16.953-131.528,99.241-67.256,324.2,0,0-127.175,26.9-48.913,215.22h12.229s-14.674-102.719,53.8-127.175l17.12,58.7h7.337l2.446,14.674H2195.6l2.446-14.674h7.337l17.12-58.7c68.479,24.457,53.805,127.175,53.805,127.175h12.229C2366.8,734.072,2239.624,707.169,2239.624,707.169Z" transform="translate(-2030.743 -382.97)"/><path class="a" d="M2178.2,443.806c-20.355-35.347-45.059-53.771-56.28-60.836-11.224,7.066-35.927,25.489-56.283,60.836Z" transform="translate(-1980.293 -382.97)"/></g></g></svg>