<svg xmlns="http://www.w3.org/2000/svg" width="28.145" height="21.419" viewBox="0 0 28.145 21.419"><defs><style>.a{fill:#21b3ff;}</style></defs><g transform="translate(-1342 -9638.581)"><path class="a" d="M24.709,57.75H3.442A3.445,3.445,0,0,0,0,61.192V75.727a3.445,3.445,0,0,0,3.442,3.442H24.7a3.445,3.445,0,0,0,3.442-3.442V61.2A3.441,3.441,0,0,0,24.709,57.75Zm1.869,17.977A1.871,1.871,0,0,1,24.709,77.6H3.442a1.871,1.871,0,0,1-1.869-1.869V61.2a1.871,1.871,0,0,1,1.869-1.869H24.7A1.871,1.871,0,0,1,26.573,61.2v14.53Z" transform="translate(1342 9580.831)"/><path class="a" d="M70.256,116.452l6.883-6.173a.788.788,0,0,0-1.054-1.171l-9.492,8.52-1.852-1.654c-.006-.006-.012-.012-.012-.017a1.164,1.164,0,0,0-.128-.111L57.065,109.1a.788.788,0,1,0-1.048,1.176l6.965,6.225L56.046,123a.789.789,0,0,0-.035,1.112.8.8,0,0,0,.577.25.788.788,0,0,0,.536-.21l7.041-6.586,1.91,1.706a.784.784,0,0,0,1.048-.006l1.963-1.759,7,6.65a.788.788,0,0,0,1.112-.029.789.789,0,0,0-.029-1.112Z" transform="translate(1289.494 9532.657)"/></g></svg>