<svg xmlns="http://www.w3.org/2000/svg" xmlns:xlink="http://www.w3.org/1999/xlink" width="1771.706" height="1436.309" viewBox="0 0 1771.706 1436.309"><defs><style>.a{fill:#0e77ff;}.b{fill:#fff;}.c{fill:#f0f6ff;}.d{filter:url(#m);}.e{filter:url(#k);}.f{filter:url(#i);}.g{filter:url(#g);}.h{filter:url(#e);}.i{filter:url(#c);}.j{filter:url(#a);}</style><filter id="a" x="0" y="0" width="1398.986" height="1436.309" filterUnits="userSpaceOnUse"><feOffset dy="40" input="SourceAlpha"/><feGaussianBlur stdDeviation="20" result="b"/><feFlood flood-color="#0e77ff" flood-opacity="0.149"/><feComposite operator="in" in2="b"/><feComposite in="SourceGraphic"/></filter><filter id="c" x="960.511" y="605.013" width="719.213" height="754.823" filterUnits="userSpaceOnUse"><feOffset dy="40" input="SourceAlpha"/><feGaussianBlur stdDeviation="20" result="d"/><feFlood flood-color="#0e77ff" flood-opacity="0.149"/><feComposite operator="in" in2="d"/><feComposite in="SourceGraphic"/></filter><filter id="e" x="1123.048" y="68.862" width="633.617" height="608.725" filterUnits="userSpaceOnUse"><feOffset dy="40" input="SourceAlpha"/><feGaussianBlur stdDeviation="20" result="f"/><feFlood flood-color="#0e77ff" flood-opacity="0.149"/><feComposite operator="in" in2="f"/><feComposite in="SourceGraphic"/></filter><filter id="g" x="1463.87" y="529.592" width="307.836" height="307.836" filterUnits="userSpaceOnUse"><feOffset dy="40" input="SourceAlpha"/><feGaussianBlur stdDeviation="20" result="h"/><feFlood flood-color="#0e77ff" flood-opacity="0.149"/><feComposite operator="in" in2="h"/><feComposite in="SourceGraphic"/></filter><filter id="i" x="999.394" y="127.124" width="255.258" height="255.258" filterUnits="userSpaceOnUse"><feOffset dy="40" input="SourceAlpha"/><feGaussianBlur stdDeviation="20" result="j"/><feFlood flood-color="#0e77ff" flood-opacity="0.149"/><feComposite operator="in" in2="j"/><feComposite in="SourceGraphic"/></filter><filter id="k" x="812.079" y="1082.462" width="307.836" height="307.836" filterUnits="userSpaceOnUse"><feOffset dy="40" input="SourceAlpha"/><feGaussianBlur stdDeviation="20" result="l"/><feFlood flood-color="#0e77ff" flood-opacity="0.149"/><feComposite operator="in" in2="l"/><feComposite in="SourceGraphic"/></filter><filter id="m" x="1435.079" y="941.462" width="307.836" height="307.836" filterUnits="userSpaceOnUse"><feOffset dy="40" input="SourceAlpha"/><feGaussianBlur stdDeviation="20" result="n"/><feFlood flood-color="#0e77ff" flood-opacity="0.149"/><feComposite operator="in" in2="n"/><feComposite in="SourceGraphic"/></filter></defs><g transform="translate(714.706 -1141.271)"><g transform="matrix(0.777, 0.629, -0.629, 0.777, 5.369, 1161.271)"><g class="j" transform="matrix(0.78, -0.63, 0.63, 0.78, -572.19, 437.61)"><path class="a" d="M19.66,0H776.729a19.66,19.66,0,0,1,19.66,19.66V1029.209a19.66,19.66,0,0,1-19.66,19.66H19.66A19.66,19.66,0,0,1,0,1029.209V19.66A19.66,19.66,0,0,1,19.66,0Z" transform="matrix(0.78, 0.63, -0.63, 0.78, 720.07, 20)"/></g><rect class="b" width="796.39" height="352.834" transform="translate(0 415.586)"/><path class="b" d="M796.388,77.122V15.87A15.868,15.868,0,0,0,780.52,0H15.868A15.87,15.87,0,0,0,0,15.87V77.122Z" transform="translate(0.001 0)"/><rect class="c" width="413.044" height="28.139" transform="translate(256.701 24.436)"/><rect class="c" width="28.139" height="28.139" transform="translate(739.993 24.436)"/><rect class="c" width="28.139" height="28.139" rx="5.875" transform="translate(694.591 24.436)"/><rect class="b" width="271.41" height="221.918" transform="translate(441.441 132.202)"/><rect class="b" width="271.41" height="31.132" transform="translate(77.432 132.202)"/><rect class="b" width="102.976" height="34.922" transform="translate(77.432 303.43)"/><rect class="b" width="271.41" height="11.575" transform="translate(77.432 196.063)"/><rect class="b" width="232.329" height="11.575" transform="translate(77.432 219.612)"/><rect class="b" width="135.705" height="11.575" transform="translate(77.432 243.161)"/><rect class="b" width="193.18" height="11.575" transform="translate(77.432 266.709)"/><g transform="translate(106.828 498.119)"><rect class="c" width="271.41" height="11.575" transform="translate(0 143.576)"/><rect class="c" width="189.614" height="11.575" transform="translate(40.898 167.125)"/><rect class="c" width="145.909" height="11.575" transform="translate(62.751 191.273)"/><rect class="c" width="134.456" height="109.938" transform="translate(68.477 0)"/></g><g transform="translate(418.151 498.119)"><rect class="c" width="271.41" height="11.575" transform="translate(0 143.576)"/><rect class="c" width="189.614" height="11.575" transform="translate(40.898 167.125)"/><rect class="c" width="145.909" height="11.575" transform="translate(62.751 191.273)"/><rect class="c" width="134.456" height="109.938" transform="translate(68.477 0)"/></g></g><g transform="matrix(0.777, 0.629, -0.629, 0.777, 657.688, 1766.284)"><g class="i" transform="matrix(0.78, -0.63, 0.63, 0.78, -1459.88, 377.95)"><rect class="b" width="318.254" height="559.148" rx="10.294" transform="matrix(0.78, 0.63, -0.63, 0.78, 1372.39, 625.01)"/></g><path class="a" d="M318.255,178.776V20.345A20.346,20.346,0,0,0,297.909,0H20.347A20.346,20.346,0,0,0,0,20.345V178.776Z" transform="translate(0)"/><g transform="translate(69.695 0)"><path class="b" d="M0,0H.856A14.922,14.922,0,0,1,14.072,7.995l6.6,12.588a16.127,16.127,0,0,0,14.288,8.643H93.139V0"/><path class="b" d="M93.139,0h-.858A14.919,14.919,0,0,0,79.067,7.995l-6.6,12.588a16.13,16.13,0,0,1-14.287,8.643H0V0" transform="translate(85.728 0)"/></g><rect class="c" width="216.278" height="34.805" transform="translate(54.695 267.906)"/><rect class="c" width="216.278" height="34.805" transform="translate(54.695 334.804)"/><rect class="a" width="114.01" height="34.805" transform="translate(59.306 401.703)"/><rect class="c" width="139.175" height="139.175" transform="translate(91.27 71.585)"/></g><g transform="matrix(0.777, 0.629, -0.629, 0.777, 639.606, 1230.133)"><g class="h" transform="matrix(0.78, -0.63, 0.63, 0.78, -1108.42, 783.24)"><rect class="b" width="440.526" height="272.14" rx="7.936" transform="matrix(0.78, 0.63, -0.63, 0.78, 1354.31, 88.86)"/></g><g transform="translate(47.396 46.255)"><rect class="a" width="53.306" height="16.287"/><rect class="c" width="96.792" height="16.287" transform="translate(63.827 0)"/><rect class="a" width="179.206" height="16.287" transform="translate(171.14 0)"/><rect class="a" width="95.389" height="16.287" transform="translate(0 34.874)"/><rect class="a" width="150.098" height="16.287" transform="translate(105.91 34.874)"/><rect class="c" width="114.678" height="16.287" transform="translate(39.278 69.747)"/><rect class="a" width="28.757" height="16.287" transform="translate(0 69.747)"/><rect class="c" width="185.869" height="16.287" transform="translate(164.477 69.747)"/><rect class="a" width="100.299" height="16.287" transform="translate(95.389 104.621)"/><rect class="a" width="77.855" height="16.287" transform="translate(206.21 104.621)"/><rect class="a" width="55.761" height="16.287" transform="translate(294.585 104.621)"/><rect class="c" width="84.869" height="16.287" transform="translate(0 104.621)"/><rect class="a" width="127.654" height="16.287" transform="translate(0 139.495)"/><rect class="c" width="124.497" height="16.287" transform="translate(138.174 139.495)"/></g></g><g class="g" transform="matrix(1, 0, 0, 1, -714.71, 1141.27)"><rect class="b" width="133.552" height="133.552" rx="26" transform="matrix(0.78, 0.63, -0.63, 0.78, 1607.92, 549.59)"/></g><g class="f" transform="matrix(1, 0, 0, 1, -714.71, 1141.27)"><rect class="a" width="96.168" height="96.168" rx="26" transform="matrix(0.78, 0.63, -0.63, 0.78, 1119.91, 147.12)"/></g><g class="e" transform="matrix(1, 0, 0, 1, -714.71, 1141.27)"><rect class="a" width="133.552" height="133.552" rx="26" transform="matrix(0.78, 0.63, -0.63, 0.78, 956.13, 1102.46)"/></g><g class="d" transform="matrix(1, 0, 0, 1, -714.71, 1141.27)"><rect class="b" width="133.552" height="133.552" rx="26" transform="matrix(0.78, 0.63, -0.63, 0.78, 1579.13, 961.46)"/></g></g></svg>