<svg xmlns="http://www.w3.org/2000/svg" width="25.118" height="25.154" viewBox="0 0 25.118 25.154"><defs><style>.a{fill:#21b3ff;}</style></defs><g transform="translate(-1342 -9584.326)"><path class="a" d="M20.206,41.533a2.474,2.474,0,0,0-1.794-.823,2.558,2.558,0,0,0-1.816.818L14.918,43.2c-.138-.074-.276-.143-.409-.212-.191-.1-.372-.186-.526-.281a18.234,18.234,0,0,1-4.369-3.982,10.757,10.757,0,0,1-1.433-2.262c.435-.4.839-.812,1.232-1.21.149-.149.3-.3.446-.451a2.436,2.436,0,0,0,0-3.674L8.409,29.678c-.165-.165-.334-.334-.494-.5-.319-.329-.653-.669-1-.987a2.513,2.513,0,0,0-1.778-.78,2.6,2.6,0,0,0-1.805.78l-.011.011L1.518,30.018A3.884,3.884,0,0,0,.366,32.487a9.307,9.307,0,0,0,.68,3.939A22.859,22.859,0,0,0,5.107,43.2a24.983,24.983,0,0,0,8.319,6.514,12.962,12.962,0,0,0,4.672,1.38c.111.005.228.011.334.011A4,4,0,0,0,21.5,49.788c.005-.011.016-.016.021-.027a12.068,12.068,0,0,1,.929-.961c.228-.218.462-.446.69-.685a2.648,2.648,0,0,0,.8-1.837,2.551,2.551,0,0,0-.818-1.821Zm1.9,5.59c-.005,0-.005.005,0,0-.207.223-.419.425-.648.648a13.96,13.96,0,0,0-1.025,1.062,2.559,2.559,0,0,1-2,.844c-.08,0-.165,0-.244-.005a11.515,11.515,0,0,1-4.141-1.242,23.583,23.583,0,0,1-7.836-6.137,21.553,21.553,0,0,1-3.822-6.365A7.58,7.58,0,0,1,1.8,32.6a2.437,2.437,0,0,1,.733-1.577l1.81-1.81a1.207,1.207,0,0,1,.807-.377,1.136,1.136,0,0,1,.775.372l.016.016c.324.3.632.616.956.95.165.17.334.34.5.515L8.85,32.142a1.013,1.013,0,0,1,0,1.646c-.154.154-.3.308-.457.457-.446.457-.871.881-1.333,1.3-.011.011-.021.016-.027.027a1.083,1.083,0,0,0-.276,1.205l.016.048a11.636,11.636,0,0,0,1.715,2.8l.005.005a19.486,19.486,0,0,0,4.714,4.29,7.248,7.248,0,0,0,.653.356c.191.1.372.186.526.281.021.011.042.027.064.037a1.151,1.151,0,0,0,.526.133,1.135,1.135,0,0,0,.807-.366L17.6,42.536a1.2,1.2,0,0,1,.8-.4,1.081,1.081,0,0,1,.764.388l.011.011L22.1,45.462A1.05,1.05,0,0,1,22.106,47.123Z" transform="translate(1341.655 9558.375)"/><path class="a" d="M245.534,87.347a6.833,6.833,0,0,1,5.564,5.564.712.712,0,0,0,.706.595.95.95,0,0,0,.122-.011.717.717,0,0,0,.589-.828,8.262,8.262,0,0,0-6.732-6.732.72.72,0,0,0-.828.584A.709.709,0,0,0,245.534,87.347Z" transform="translate(1110.042 9502.963)"/><path class="a" d="M260.693,11.1A13.6,13.6,0,0,0,249.608.011a.716.716,0,1,0-.234,1.412,12.151,12.151,0,0,1,9.906,9.906.712.712,0,0,0,.706.595.947.947,0,0,0,.122-.011A.7.7,0,0,0,260.693,11.1Z" transform="translate(1106.414 9584.326)"/></g></svg>