<svg xmlns="http://www.w3.org/2000/svg" width="571.794" height="571.793" viewBox="0 0 571.794 571.793"><defs><style>.a{fill:#0e77ff;}</style></defs><g transform="translate(4218.162 -5256.632) rotate(45)"><g transform="translate(883 6551.001)"><path class="a" d="M891.2,331.047a6.1,6.1,0,0,0-9.516,5.059h0v0a6.1,6.1,0,1,0,12.207,0v0h0A6.1,6.1,0,0,0,891.2,331.047Z" transform="translate(-881.68 -187.418)"/><path class="a" d="M902.018,331.047a6.1,6.1,0,0,0-9.516,5.059h0v0a6.1,6.1,0,1,0,12.207,0v0h0A6.1,6.1,0,0,0,902.018,331.047Z" transform="translate(-856.855 -187.418)"/><path class="a" d="M912.84,331.047a6.1,6.1,0,0,0-9.516,5.059h0v0a6.1,6.1,0,1,0,12.208,0v0h0A6.1,6.1,0,0,0,912.84,331.047Z" transform="translate(-832.03 -187.418)"/><path class="a" d="M923.662,331.047a6.1,6.1,0,0,0-9.516,5.059h0v0a6.1,6.1,0,0,0,12.207,0v0h0A6.1,6.1,0,0,0,923.662,331.047Z" transform="translate(-807.205 -187.418)"/><path class="a" d="M934.486,331.047a6.105,6.105,0,0,0-9.519,5.059h0v0a6.105,6.105,0,0,0,12.211,0v0h0A6.1,6.1,0,0,0,934.486,331.047Z" transform="translate(-782.382 -187.418)"/><path class="a" d="M945.305,331.047a6.1,6.1,0,0,0-9.516,5.059h0v0a6.1,6.1,0,1,0,12.207,0v0h0A6.1,6.1,0,0,0,945.305,331.047Z" transform="translate(-757.557 -187.418)"/><path class="a" d="M956.127,331.047a6.1,6.1,0,0,0-9.516,5.059h0v0a6.1,6.1,0,1,0,12.207,0v0h0A6.1,6.1,0,0,0,956.127,331.047Z" transform="translate(-732.732 -187.418)"/><path class="a" d="M887.783,340.825a6.1,6.1,0,1,0,6.1,6.1A6.105,6.105,0,0,0,887.783,340.825Z" transform="translate(-881.68 -162.593)"/><path class="a" d="M898.605,340.825a6.1,6.1,0,1,0,6.1,6.1A6.105,6.105,0,0,0,898.605,340.825Z" transform="translate(-856.855 -162.593)"/><path class="a" d="M909.428,340.825a6.1,6.1,0,1,0,6.1,6.1A6.105,6.105,0,0,0,909.428,340.825Z" transform="translate(-832.03 -162.593)"/><path class="a" d="M920.25,340.825a6.1,6.1,0,1,0,6.1,6.1A6.1,6.1,0,0,0,920.25,340.825Z" transform="translate(-807.205 -162.593)"/><path class="a" d="M931.074,340.825a6.1,6.1,0,1,0,6.1,6.1A6.106,6.106,0,0,0,931.074,340.825Z" transform="translate(-782.382 -162.593)"/><path class="a" d="M941.893,340.825a6.1,6.1,0,1,0,6.1,6.1A6.105,6.105,0,0,0,941.893,340.825Z" transform="translate(-757.557 -162.593)"/><path class="a" d="M952.715,340.825a6.1,6.1,0,1,0,6.1,6.1A6.1,6.1,0,0,0,952.715,340.825Z" transform="translate(-732.732 -162.593)"/><path class="a" d="M887.783,351.647a6.1,6.1,0,1,0,6.1,6.1A6.105,6.105,0,0,0,887.783,351.647Z" transform="translate(-881.68 -137.768)"/><path class="a" d="M898.605,351.647a6.1,6.1,0,1,0,6.1,6.1A6.105,6.105,0,0,0,898.605,351.647Z" transform="translate(-856.855 -137.768)"/><path class="a" d="M909.428,351.647a6.1,6.1,0,1,0,6.1,6.1A6.105,6.105,0,0,0,909.428,351.647Z" transform="translate(-832.03 -137.768)"/><path class="a" d="M920.25,351.647a6.1,6.1,0,1,0,6.1,6.1A6.1,6.1,0,0,0,920.25,351.647Z" transform="translate(-807.205 -137.768)"/><path class="a" d="M931.074,351.647a6.1,6.1,0,1,0,6.1,6.1A6.106,6.106,0,0,0,931.074,351.647Z" transform="translate(-782.382 -137.768)"/><path class="a" d="M941.893,351.647a6.1,6.1,0,1,0,6.1,6.1A6.105,6.105,0,0,0,941.893,351.647Z" transform="translate(-757.557 -137.768)"/><path class="a" d="M952.715,351.647a6.1,6.1,0,1,0,6.1,6.1A6.1,6.1,0,0,0,952.715,351.647Z" transform="translate(-732.732 -137.768)"/><path class="a" d="M887.783,362.469a6.1,6.1,0,1,0,6.1,6.1A6.1,6.1,0,0,0,887.783,362.469Z" transform="translate(-881.68 -112.943)"/><path class="a" d="M898.605,362.469a6.1,6.1,0,1,0,6.1,6.1A6.1,6.1,0,0,0,898.605,362.469Z" transform="translate(-856.855 -112.943)"/><path class="a" d="M909.428,362.469a6.1,6.1,0,1,0,6.1,6.1A6.1,6.1,0,0,0,909.428,362.469Z" transform="translate(-832.03 -112.943)"/><path class="a" d="M920.25,362.469a6.1,6.1,0,1,0,6.1,6.1A6.1,6.1,0,0,0,920.25,362.469Z" transform="translate(-807.205 -112.943)"/><path class="a" d="M931.074,362.469a6.1,6.1,0,1,0,6.1,6.1A6.1,6.1,0,0,0,931.074,362.469Z" transform="translate(-782.382 -112.943)"/><path class="a" d="M941.893,362.469a6.1,6.1,0,1,0,6.1,6.1A6.1,6.1,0,0,0,941.893,362.469Z" transform="translate(-757.557 -112.943)"/><path class="a" d="M952.715,362.469a6.1,6.1,0,1,0,6.1,6.1A6.1,6.1,0,0,0,952.715,362.469Z" transform="translate(-732.732 -112.943)"/><path class="a" d="M887.783,373.29a6.105,6.105,0,1,0,6.1,6.107A6.106,6.106,0,0,0,887.783,373.29Z" transform="translate(-881.68 -88.12)"/><path class="a" d="M898.605,373.29a6.105,6.105,0,1,0,6.1,6.107A6.106,6.106,0,0,0,898.605,373.29Z" transform="translate(-856.855 -88.12)"/><path class="a" d="M909.428,373.29a6.105,6.105,0,1,0,6.1,6.107A6.106,6.106,0,0,0,909.428,373.29Z" transform="translate(-832.03 -88.12)"/><path class="a" d="M920.25,373.29a6.105,6.105,0,1,0,6.1,6.107A6.1,6.1,0,0,0,920.25,373.29Z" transform="translate(-807.205 -88.12)"/><path class="a" d="M931.074,373.29a6.105,6.105,0,1,0,6.1,6.107A6.107,6.107,0,0,0,931.074,373.29Z" transform="translate(-782.382 -88.12)"/><path class="a" d="M941.893,373.29A6.105,6.105,0,1,0,948,379.4,6.106,6.106,0,0,0,941.893,373.29Z" transform="translate(-757.557 -88.12)"/><path class="a" d="M952.715,373.29a6.105,6.105,0,1,0,6.1,6.107A6.106,6.106,0,0,0,952.715,373.29Z" transform="translate(-732.732 -88.12)"/><path class="a" d="M887.783,286.716a6.1,6.1,0,1,0,6.1,6.1A6.105,6.105,0,0,0,887.783,286.716Z" transform="translate(-881.68 -286.716)"/><path class="a" d="M898.605,286.716a6.1,6.1,0,1,0,6.1,6.1A6.105,6.105,0,0,0,898.605,286.716Z" transform="translate(-856.855 -286.716)"/><path class="a" d="M909.428,286.716a6.1,6.1,0,1,0,6.1,6.1A6.105,6.105,0,0,0,909.428,286.716Z" transform="translate(-832.03 -286.716)"/><path class="a" d="M920.25,286.716a6.1,6.1,0,1,0,6.1,6.1A6.1,6.1,0,0,0,920.25,286.716Z" transform="translate(-807.205 -286.716)"/><path class="a" d="M931.074,286.716a6.1,6.1,0,1,0,6.1,6.1A6.106,6.106,0,0,0,931.074,286.716Z" transform="translate(-782.382 -286.716)"/><path class="a" d="M941.893,286.716a6.1,6.1,0,1,0,6.1,6.1A6.105,6.105,0,0,0,941.893,286.716Z" transform="translate(-757.557 -286.716)"/><path class="a" d="M952.715,286.716a6.1,6.1,0,1,0,6.1,6.1A6.1,6.1,0,0,0,952.715,286.716Z" transform="translate(-732.732 -286.716)"/><path class="a" d="M887.783,297.538a6.1,6.1,0,1,0,6.1,6.1A6.105,6.105,0,0,0,887.783,297.538Z" transform="translate(-881.68 -261.891)"/><path class="a" d="M898.605,297.538a6.1,6.1,0,1,0,6.1,6.1A6.105,6.105,0,0,0,898.605,297.538Z" transform="translate(-856.855 -261.891)"/><path class="a" d="M909.428,297.538a6.1,6.1,0,1,0,6.1,6.1A6.105,6.105,0,0,0,909.428,297.538Z" transform="translate(-832.03 -261.891)"/><path class="a" d="M920.25,297.538a6.1,6.1,0,1,0,6.1,6.1A6.1,6.1,0,0,0,920.25,297.538Z" transform="translate(-807.205 -261.891)"/><path class="a" d="M931.074,297.538a6.1,6.1,0,1,0,6.1,6.1A6.106,6.106,0,0,0,931.074,297.538Z" transform="translate(-782.382 -261.891)"/><path class="a" d="M941.893,297.538a6.1,6.1,0,1,0,6.1,6.1A6.105,6.105,0,0,0,941.893,297.538Z" transform="translate(-757.557 -261.891)"/><path class="a" d="M952.715,297.538a6.1,6.1,0,1,0,6.1,6.1A6.105,6.105,0,0,0,952.715,297.538Z" transform="translate(-732.732 -261.891)"/><path class="a" d="M887.783,308.36a6.1,6.1,0,1,0,6.1,6.1A6.105,6.105,0,0,0,887.783,308.36Z" transform="translate(-881.68 -237.066)"/><path class="a" d="M898.605,308.36a6.1,6.1,0,1,0,6.1,6.1A6.105,6.105,0,0,0,898.605,308.36Z" transform="translate(-856.855 -237.066)"/><path class="a" d="M909.428,308.36a6.1,6.1,0,1,0,6.1,6.1A6.105,6.105,0,0,0,909.428,308.36Z" transform="translate(-832.03 -237.066)"/><path class="a" d="M920.25,308.36a6.1,6.1,0,1,0,6.1,6.1A6.1,6.1,0,0,0,920.25,308.36Z" transform="translate(-807.205 -237.066)"/><path class="a" d="M931.074,308.36a6.1,6.1,0,1,0,6.1,6.1A6.106,6.106,0,0,0,931.074,308.36Z" transform="translate(-782.382 -237.066)"/><path class="a" d="M941.893,308.36a6.1,6.1,0,1,0,6.1,6.1A6.105,6.105,0,0,0,941.893,308.36Z" transform="translate(-757.557 -237.066)"/><path class="a" d="M952.715,308.36a6.1,6.1,0,1,0,6.1,6.1A6.105,6.105,0,0,0,952.715,308.36Z" transform="translate(-732.732 -237.066)"/><path class="a" d="M887.783,319.182a6.1,6.1,0,1,0,6.1,6.1A6.1,6.1,0,0,0,887.783,319.182Z" transform="translate(-881.68 -212.241)"/><path class="a" d="M898.605,319.182a6.1,6.1,0,1,0,6.1,6.1A6.1,6.1,0,0,0,898.605,319.182Z" transform="translate(-856.855 -212.241)"/><path class="a" d="M909.428,319.182a6.1,6.1,0,1,0,6.1,6.1A6.1,6.1,0,0,0,909.428,319.182Z" transform="translate(-832.03 -212.241)"/><path class="a" d="M920.25,319.182a6.1,6.1,0,1,0,6.1,6.1A6.1,6.1,0,0,0,920.25,319.182Z" transform="translate(-807.205 -212.241)"/><path class="a" d="M931.074,319.182a6.1,6.1,0,1,0,6.1,6.1A6.1,6.1,0,0,0,931.074,319.182Z" transform="translate(-782.382 -212.241)"/><path class="a" d="M941.893,319.182a6.1,6.1,0,1,0,6.1,6.1A6.1,6.1,0,0,0,941.893,319.182Z" transform="translate(-757.557 -212.241)"/><path class="a" d="M952.715,319.182a6.1,6.1,0,1,0,6.1,6.1A6.1,6.1,0,0,0,952.715,319.182Z" transform="translate(-732.732 -212.241)"/><path class="a" d="M968.6,332.694a6.12,6.12,0,0,0-1.647-1.647,6.1,6.1,0,0,0-9.516,5.059h0v0a6.1,6.1,0,0,0,12.207,0v0h0A6.079,6.079,0,0,0,968.6,332.694Z" transform="translate(-707.906 -187.418)"/><path class="a" d="M977.771,331.047a6.1,6.1,0,0,0-9.516,5.059h0v0a6.1,6.1,0,0,0,12.207,0v0h0A6.1,6.1,0,0,0,977.771,331.047Z" transform="translate(-683.081 -187.418)"/><path class="a" d="M988.592,331.047a6.1,6.1,0,0,0-9.516,5.059h0v0a6.1,6.1,0,1,0,12.207,0v0h0A6.1,6.1,0,0,0,988.592,331.047Z" transform="translate(-658.258 -187.418)"/><path class="a" d="M999.414,331.047a6.1,6.1,0,0,0-9.516,5.059h0v0a6.1,6.1,0,1,0,12.207,0v0h0A6.1,6.1,0,0,0,999.414,331.047Z" transform="translate(-633.433 -187.418)"/><path class="a" d="M1010.236,331.047a6.1,6.1,0,0,0-9.517,5.059h0v0a6.1,6.1,0,1,0,12.208,0v0h0A6.1,6.1,0,0,0,1010.236,331.047Z" transform="translate(-608.608 -187.418)"/><path class="a" d="M1021.058,331.047a6.1,6.1,0,0,0-9.516,5.059h0v0a6.1,6.1,0,0,0,12.207,0v0h0A6.1,6.1,0,0,0,1021.058,331.047Z" transform="translate(-583.783 -187.418)"/><path class="a" d="M1031.882,331.047a6.105,6.105,0,0,0-9.52,5.059h0v0a6.105,6.105,0,0,0,12.211,0v0h0A6.1,6.1,0,0,0,1031.882,331.047Z" transform="translate(-558.96 -187.418)"/><path class="a" d="M1042.7,331.047a6.1,6.1,0,0,0-9.516,5.059h0v0a6.1,6.1,0,1,0,12.207,0v0h0A6.1,6.1,0,0,0,1042.7,331.047Z" transform="translate(-534.135 -187.418)"/><path class="a" d="M964.765,340.95a6.032,6.032,0,0,0-1.229-.125,6.1,6.1,0,0,0,0,12.207,6.266,6.266,0,0,0,1.229-.122,6.106,6.106,0,0,0,0-11.96Z" transform="translate(-707.906 -162.593)"/><path class="a" d="M974.358,340.825a6.1,6.1,0,1,0,6.1,6.1A6.1,6.1,0,0,0,974.358,340.825Z" transform="translate(-683.081 -162.593)"/><path class="a" d="M985.18,340.825a6.1,6.1,0,1,0,6.1,6.1A6.105,6.105,0,0,0,985.18,340.825Z" transform="translate(-658.258 -162.593)"/><path class="a" d="M996,340.825a6.1,6.1,0,1,0,6.1,6.1A6.105,6.105,0,0,0,996,340.825Z" transform="translate(-633.433 -162.593)"/><path class="a" d="M1006.824,340.825a6.1,6.1,0,1,0,6.1,6.1A6.105,6.105,0,0,0,1006.824,340.825Z" transform="translate(-608.608 -162.593)"/><path class="a" d="M1017.646,340.825a6.1,6.1,0,1,0,6.1,6.1A6.1,6.1,0,0,0,1017.646,340.825Z" transform="translate(-583.783 -162.593)"/><path class="a" d="M1028.47,340.825a6.1,6.1,0,1,0,6.1,6.1A6.106,6.106,0,0,0,1028.47,340.825Z" transform="translate(-558.96 -162.593)"/><path class="a" d="M1039.288,340.825a6.1,6.1,0,1,0,6.1,6.1A6.1,6.1,0,0,0,1039.288,340.825Z" transform="translate(-534.135 -162.593)"/><path class="a" d="M964.765,351.772a6.03,6.03,0,0,0-1.229-.125,6.1,6.1,0,0,0,0,12.207,6.1,6.1,0,0,0,1.229-12.082Z" transform="translate(-707.906 -137.768)"/><path class="a" d="M974.358,351.647a6.1,6.1,0,1,0,6.1,6.1A6.1,6.1,0,0,0,974.358,351.647Z" transform="translate(-683.081 -137.768)"/><path class="a" d="M985.18,351.647a6.1,6.1,0,1,0,6.1,6.1A6.105,6.105,0,0,0,985.18,351.647Z" transform="translate(-658.258 -137.768)"/><path class="a" d="M996,351.647a6.1,6.1,0,1,0,6.1,6.1A6.105,6.105,0,0,0,996,351.647Z" transform="translate(-633.433 -137.768)"/><path class="a" d="M1006.824,351.647a6.1,6.1,0,1,0,6.1,6.1A6.105,6.105,0,0,0,1006.824,351.647Z" transform="translate(-608.608 -137.768)"/><path class="a" d="M1017.646,351.647a6.1,6.1,0,1,0,6.1,6.1A6.1,6.1,0,0,0,1017.646,351.647Z" transform="translate(-583.783 -137.768)"/><path class="a" d="M1028.47,351.647a6.1,6.1,0,1,0,6.1,6.1A6.106,6.106,0,0,0,1028.47,351.647Z" transform="translate(-558.96 -137.768)"/><path class="a" d="M1039.288,351.647a6.1,6.1,0,1,0,6.1,6.1A6.1,6.1,0,0,0,1039.288,351.647Z" transform="translate(-534.135 -137.768)"/><path class="a" d="M964.765,362.591a6.263,6.263,0,0,0-1.229-.122,6.1,6.1,0,0,0,0,12.207,6.03,6.03,0,0,0,1.229-.125,6.106,6.106,0,0,0,0-11.96Z" transform="translate(-707.906 -112.943)"/><path class="a" d="M974.358,362.469a6.1,6.1,0,1,0,6.1,6.1A6.1,6.1,0,0,0,974.358,362.469Z" transform="translate(-683.081 -112.943)"/><path class="a" d="M985.18,362.469a6.1,6.1,0,1,0,6.1,6.1A6.1,6.1,0,0,0,985.18,362.469Z" transform="translate(-658.258 -112.943)"/><path class="a" d="M996,362.469a6.1,6.1,0,1,0,6.1,6.1A6.1,6.1,0,0,0,996,362.469Z" transform="translate(-633.433 -112.943)"/><path class="a" d="M1006.824,362.469a6.1,6.1,0,1,0,6.1,6.1A6.1,6.1,0,0,0,1006.824,362.469Z" transform="translate(-608.608 -112.943)"/><path class="a" d="M1017.646,362.469a6.1,6.1,0,1,0,6.1,6.1A6.1,6.1,0,0,0,1017.646,362.469Z" transform="translate(-583.783 -112.943)"/><path class="a" d="M1028.47,362.469a6.1,6.1,0,1,0,6.1,6.1A6.1,6.1,0,0,0,1028.47,362.469Z" transform="translate(-558.96 -112.943)"/><path class="a" d="M1039.288,362.469a6.1,6.1,0,1,0,6.1,6.1A6.1,6.1,0,0,0,1039.288,362.469Z" transform="translate(-534.135 -112.943)"/><path class="a" d="M964.765,373.415a6.032,6.032,0,0,0-1.229-.125,6.105,6.105,0,0,0,0,12.211,6.024,6.024,0,0,0,1.229-.125,6.106,6.106,0,0,0,0-11.96Z" transform="translate(-707.906 -88.12)"/><path class="a" d="M974.358,373.29a6.105,6.105,0,1,0,6.1,6.107A6.1,6.1,0,0,0,974.358,373.29Z" transform="translate(-683.081 -88.12)"/><path class="a" d="M985.18,373.29a6.105,6.105,0,1,0,6.1,6.107A6.106,6.106,0,0,0,985.18,373.29Z" transform="translate(-658.258 -88.12)"/><path class="a" d="M996,373.29a6.105,6.105,0,1,0,6.1,6.107A6.106,6.106,0,0,0,996,373.29Z" transform="translate(-633.433 -88.12)"/><path class="a" d="M1006.824,373.29a6.105,6.105,0,1,0,6.1,6.107A6.106,6.106,0,0,0,1006.824,373.29Z" transform="translate(-608.608 -88.12)"/><path class="a" d="M1017.646,373.29a6.105,6.105,0,1,0,6.1,6.107A6.1,6.1,0,0,0,1017.646,373.29Z" transform="translate(-583.783 -88.12)"/><path class="a" d="M1028.47,373.29a6.105,6.105,0,1,0,6.1,6.107A6.107,6.107,0,0,0,1028.47,373.29Z" transform="translate(-558.96 -88.12)"/><path class="a" d="M1039.288,373.29a6.105,6.105,0,1,0,6.1,6.107A6.106,6.106,0,0,0,1039.288,373.29Z" transform="translate(-534.135 -88.12)"/><path class="a" d="M964.765,286.841a6.03,6.03,0,0,0-1.229-.125,6.1,6.1,0,0,0,0,12.207,6.273,6.273,0,0,0,1.229-.122,6.106,6.106,0,0,0,0-11.96Z" transform="translate(-707.906 -286.716)"/><path class="a" d="M974.358,286.716a6.1,6.1,0,1,0,6.1,6.1A6.1,6.1,0,0,0,974.358,286.716Z" transform="translate(-683.081 -286.716)"/><path class="a" d="M985.18,286.716a6.1,6.1,0,1,0,6.1,6.1A6.105,6.105,0,0,0,985.18,286.716Z" transform="translate(-658.258 -286.716)"/><path class="a" d="M996,286.716a6.1,6.1,0,1,0,6.1,6.1A6.105,6.105,0,0,0,996,286.716Z" transform="translate(-633.433 -286.716)"/><path class="a" d="M1006.824,286.716a6.1,6.1,0,1,0,6.1,6.1A6.105,6.105,0,0,0,1006.824,286.716Z" transform="translate(-608.608 -286.716)"/><path class="a" d="M1017.646,286.716a6.1,6.1,0,1,0,6.1,6.1A6.1,6.1,0,0,0,1017.646,286.716Z" transform="translate(-583.783 -286.716)"/><path class="a" d="M1028.47,286.716a6.1,6.1,0,1,0,6.1,6.1A6.106,6.106,0,0,0,1028.47,286.716Z" transform="translate(-558.96 -286.716)"/><path class="a" d="M1039.288,298.923a6.1,6.1,0,1,0-6.1-6.1A6.1,6.1,0,0,0,1039.288,298.923Z" transform="translate(-534.135 -286.716)"/><path class="a" d="M964.765,297.663a6.022,6.022,0,0,0-1.229-.125,6.1,6.1,0,0,0,0,12.207,6.275,6.275,0,0,0,1.229-.122,6.105,6.105,0,0,0,0-11.96Z" transform="translate(-707.906 -261.891)"/><path class="a" d="M974.358,297.538a6.1,6.1,0,1,0,6.1,6.1A6.1,6.1,0,0,0,974.358,297.538Z" transform="translate(-683.081 -261.891)"/><path class="a" d="M985.18,297.538a6.1,6.1,0,1,0,6.1,6.1A6.105,6.105,0,0,0,985.18,297.538Z" transform="translate(-658.258 -261.891)"/><path class="a" d="M996,297.538a6.1,6.1,0,1,0,6.1,6.1A6.105,6.105,0,0,0,996,297.538Z" transform="translate(-633.433 -261.891)"/><path class="a" d="M1006.824,297.538a6.1,6.1,0,1,0,6.1,6.1A6.105,6.105,0,0,0,1006.824,297.538Z" transform="translate(-608.608 -261.891)"/><path class="a" d="M1017.646,297.538a6.1,6.1,0,1,0,6.1,6.1A6.1,6.1,0,0,0,1017.646,297.538Z" transform="translate(-583.783 -261.891)"/><path class="a" d="M1028.47,297.538a6.1,6.1,0,1,0,6.1,6.1A6.106,6.106,0,0,0,1028.47,297.538Z" transform="translate(-558.96 -261.891)"/><path class="a" d="M1039.288,297.538a6.1,6.1,0,1,0,6.1,6.1A6.105,6.105,0,0,0,1039.288,297.538Z" transform="translate(-534.135 -261.891)"/><path class="a" d="M964.765,308.485a6.024,6.024,0,0,0-1.229-.125,6.1,6.1,0,0,0,0,12.207,6.03,6.03,0,0,0,1.229-.125,6.1,6.1,0,0,0,0-11.957Z" transform="translate(-707.906 -237.066)"/><path class="a" d="M974.358,308.36a6.1,6.1,0,1,0,6.1,6.1A6.1,6.1,0,0,0,974.358,308.36Z" transform="translate(-683.081 -237.066)"/><path class="a" d="M985.18,308.36a6.1,6.1,0,1,0,6.1,6.1A6.105,6.105,0,0,0,985.18,308.36Z" transform="translate(-658.258 -237.066)"/><path class="a" d="M996,308.36a6.1,6.1,0,1,0,6.1,6.1A6.105,6.105,0,0,0,996,308.36Z" transform="translate(-633.433 -237.066)"/><path class="a" d="M1006.824,308.36a6.1,6.1,0,1,0,6.1,6.1A6.105,6.105,0,0,0,1006.824,308.36Z" transform="translate(-608.608 -237.066)"/><path class="a" d="M1017.646,308.36a6.1,6.1,0,1,0,6.1,6.1A6.1,6.1,0,0,0,1017.646,308.36Z" transform="translate(-583.783 -237.066)"/><path class="a" d="M1028.47,308.36a6.1,6.1,0,1,0,6.1,6.1A6.106,6.106,0,0,0,1028.47,308.36Z" transform="translate(-558.96 -237.066)"/><path class="a" d="M1039.288,308.36a6.1,6.1,0,1,0,6.1,6.1A6.105,6.105,0,0,0,1039.288,308.36Z" transform="translate(-534.135 -237.066)"/><path class="a" d="M964.765,319.3a6.275,6.275,0,0,0-1.229-.122,6.1,6.1,0,0,0,0,12.207,6.03,6.03,0,0,0,1.229-.125,6.106,6.106,0,0,0,0-11.96Z" transform="translate(-707.906 -212.241)"/><path class="a" d="M974.358,319.182a6.1,6.1,0,1,0,6.1,6.1A6.1,6.1,0,0,0,974.358,319.182Z" transform="translate(-683.081 -212.241)"/><path class="a" d="M985.18,319.182a6.1,6.1,0,1,0,6.1,6.1A6.1,6.1,0,0,0,985.18,319.182Z" transform="translate(-658.258 -212.241)"/><path class="a" d="M996,319.182a6.1,6.1,0,1,0,6.1,6.1A6.1,6.1,0,0,0,996,319.182Z" transform="translate(-633.433 -212.241)"/><path class="a" d="M1006.824,319.182a6.1,6.1,0,1,0,6.1,6.1A6.1,6.1,0,0,0,1006.824,319.182Z" transform="translate(-608.608 -212.241)"/><path class="a" d="M1017.646,319.182a6.1,6.1,0,1,0,6.1,6.1A6.1,6.1,0,0,0,1017.646,319.182Z" transform="translate(-583.783 -212.241)"/><path class="a" d="M1028.47,319.182a6.1,6.1,0,1,0,6.1,6.1A6.1,6.1,0,0,0,1028.47,319.182Z" transform="translate(-558.96 -212.241)"/><path class="a" d="M1039.288,319.182a6.1,6.1,0,1,0,6.1,6.1A6.1,6.1,0,0,0,1039.288,319.182Z" transform="translate(-534.135 -212.241)"/></g></g></svg>