<svg xmlns="http://www.w3.org/2000/svg" width="161.681" height="56.914" viewBox="0 0 161.681 56.914"><defs><style>.a{fill:#0e77ff;}</style></defs><path class="a" d="M54.505,5.53a2.87,2.87,0,0,0-4.079,4.038L71.11,30.252H2.856A2.842,2.842,0,0,0,0,33.11a2.873,2.873,0,0,0,2.856,2.9H71.11L50.426,56.652a2.928,2.928,0,0,0,0,4.079,2.858,2.858,0,0,0,4.079,0L80.086,35.151a2.809,2.809,0,0,0,0-4.038Z" transform="translate(80.74 -4.674)"/><path class="a" d="M32.606.512a1.717,1.717,0,0,0-2.44,2.416L42.539,15.3H1.708A1.7,1.7,0,0,0,0,17.011a1.719,1.719,0,0,0,1.708,1.733H42.539L30.166,31.095a1.752,1.752,0,0,0,0,2.44,1.71,1.71,0,0,0,2.44,0l15.3-15.3a1.681,1.681,0,0,0,0-2.416Z" transform="translate(48.421 45.48) rotate(180)"/></svg>