<svg xmlns="http://www.w3.org/2000/svg" width="17.96" height="18.126" viewBox="0 0 17.96 18.126"><defs><style>.a{fill:#fff;}</style></defs><path class="a" d="M96.757,80.326H83.27a2.239,2.239,0,0,0-2.236,2.236V96.216a2.239,2.239,0,0,0,2.236,2.236H96.757a2.239,2.239,0,0,0,2.236-2.236V82.562A2.239,2.239,0,0,0,96.757,80.326Zm.118,15.89a.118.118,0,0,1-.118.118H83.27a.118.118,0,0,1-.118-.118V82.562a.118.118,0,0,1,.118-.118H96.757a.118.118,0,0,1,.118.118Z" transform="translate(-81.034 -80.326)"/><rect class="a" width="2.426" height="2.226" transform="translate(12.07 3.706)"/><ellipse class="a" cx="2.392" cy="2.392" rx="2.392" ry="2.392" transform="translate(6.588 7.568)"/><path class="a" d="M119.789,152.111a3.816,3.816,0,1,1-7.631,0l.005-1.7h-1.706v6.328H121.49v-6.328H119.8Z" transform="translate(-106.993 -142.162)"/></svg>