<svg xmlns="http://www.w3.org/2000/svg" xmlns:xlink="http://www.w3.org/1999/xlink" width="106" height="105" viewBox="0 0 106 105"><defs><style>.a,.b,.d{fill:#0e77ff;}.a{stroke:#707070;}.c{clip-path:url(#a);}.d{fill-rule:evenodd;}.e{clip-path:url(#b);}.f{clip-path:url(#c);}.g{clip-path:url(#d);}</style><clipPath id="a"><rect class="a" width="106" height="105" transform="translate(140 2860.5)"/></clipPath><clipPath id="b"><path class="b" d="M64.28,62.47,54.209,68.283a1.216,1.216,0,0,0-.609,1.053V80.97a1.215,1.215,0,0,0,.609,1.053L64.281,87.84a1.219,1.219,0,0,0,1.217,0l10.07-5.817a1.218,1.218,0,0,0,.607-1.053V69.336a1.215,1.215,0,0,0-.61-1.053L65.5,62.47a1.224,1.224,0,0,0-1.219,0" transform="translate(-53.6 -62.307)"/></clipPath><clipPath id="c"><path class="b" d="M53.888,81.713a1.219,1.219,0,0,0,.359.315l8.639,4.99,1.439.827a1.221,1.221,0,0,0,.7.159,1.243,1.243,0,0,0,.239-.044L75.887,68.512a1.2,1.2,0,0,0-.283-.225L69.01,64.479l-3.486-2.006a1.271,1.271,0,0,0-.316-.127Zm0,0" transform="translate(-53.888 -62.347)"/></clipPath><clipPath id="d"><path class="b" d="M64.865,62.314a1.229,1.229,0,0,0-.486.156l-10.042,5.8L65.164,87.99a1.207,1.207,0,0,0,.433-.149l10.071-5.817a1.22,1.22,0,0,0,.588-.831L65.217,62.334a1.265,1.265,0,0,0-.246-.024c-.033,0-.067,0-.1,0" transform="translate(-54.336 -62.31)"/></clipPath></defs><g class="c" transform="translate(-140 -2860.5)"><g transform="translate(140 2880.491)"><path class="b" d="M58.523,70.713a2.01,2.01,0,0,1-1-.268l-3.188-1.887c-.476-.266-.244-.36-.087-.415a6.436,6.436,0,0,0,1.441-.657.242.242,0,0,1,.237.017l2.449,1.453a.323.323,0,0,0,.3,0l9.55-5.512a.3.3,0,0,0,.146-.258V52.165a.307.307,0,0,0-.148-.263l-9.546-5.508a.294.294,0,0,0-.294,0L48.834,51.9a.3.3,0,0,0-.151.261v11.02a.294.294,0,0,0,.148.256l2.615,1.511c1.42.71,2.288-.127,2.288-.968V53.1a.272.272,0,0,1,.277-.275h1.21a.273.273,0,0,1,.275.275V63.986a2.648,2.648,0,0,1-2.828,2.981,4.094,4.094,0,0,1-2.2-.6l-2.505-1.444a2.019,2.019,0,0,1-1-1.743V52.163a2.007,2.007,0,0,1,1-1.74l9.559-5.515a2.094,2.094,0,0,1,2.008,0l9.547,5.517a2.015,2.015,0,0,1,1,1.74v11.02a2.02,2.02,0,0,1-1,1.74L59.528,70.44a2.007,2.007,0,0,1-1.006.268" transform="translate(-6.257 -5.949)"/><path class="b" d="M62.926,63.9c-4.178,0-5.055-1.918-5.055-3.527a.275.275,0,0,1,.277-.275h1.233a.276.276,0,0,1,.272.234c.186,1.257.741,1.891,3.268,1.891,2.013,0,2.869-.455,2.869-1.522,0-.614-.244-1.071-3.37-1.377-2.615-.258-4.231-.834-4.231-2.926,0-1.927,1.625-3.074,4.348-3.074,3.057,0,4.573,1.061,4.764,3.342a.278.278,0,0,1-.074.213.284.284,0,0,1-.2.088H65.783a.274.274,0,0,1-.268-.215c-.3-1.322-1.021-1.745-2.983-1.745-2.2,0-2.453.765-2.453,1.339,0,.7.3.9,3.265,1.291,2.935.39,4.329.939,4.329,3,0,2.08-1.735,3.272-4.762,3.272M74.544,52.225h.32a.278.278,0,0,0,.313-.292c0-.282-.194-.282-.3-.282h-.33Zm-.39-.9h.71c.244,0,.722,0,.722.545a.474.474,0,0,1-.39.507c.284.019.3.206.342.469a2.015,2.015,0,0,0,.108.545h-.437c-.012-.1-.079-.622-.079-.65-.029-.117-.069-.174-.215-.174h-.361v.827h-.4ZM73.3,52.349a1.543,1.543,0,1,0,1.537-1.539A1.545,1.545,0,0,0,73.3,52.349m3.385.007a1.841,1.841,0,1,1-1.841-1.841,1.846,1.846,0,0,1,1.841,1.841" transform="translate(-7.711 -6.73)"/><path class="d" d="M22.694,21.645a1.223,1.223,0,0,0-.611-1.063L11.957,14.757a1.182,1.182,0,0,0-.556-.16h-.1a1.2,1.2,0,0,0-.559.16L.612,20.583A1.232,1.232,0,0,0,0,21.646L.022,37.337a.6.6,0,0,0,.3.528.579.579,0,0,0,.607,0l6.019-3.447a1.234,1.234,0,0,0,.612-1.061v-7.33a1.219,1.219,0,0,1,.611-1.059l2.563-1.476a1.216,1.216,0,0,1,.612-.164,1.194,1.194,0,0,1,.608.164l2.561,1.475a1.22,1.22,0,0,1,.612,1.059v7.33a1.239,1.239,0,0,0,.613,1.061l6.015,3.445a.6.6,0,0,0,.612,0,.614.614,0,0,0,.3-.528Zm47.777,8.17a.3.3,0,0,1-.153.264l-3.478,2a.307.307,0,0,1-.305,0l-3.478-2a.3.3,0,0,1-.153-.264V25.8a.308.308,0,0,1,.151-.265l3.476-2.008a.309.309,0,0,1,.308,0l3.478,2.008a.3.3,0,0,1,.153.265ZM71.41.077a.611.611,0,0,0-.91.535V16.15a.428.428,0,0,1-.642.371L67.322,15.06a1.221,1.221,0,0,0-1.222,0L55.972,20.9a1.22,1.22,0,0,0-.612,1.057V33.656a1.224,1.224,0,0,0,.612,1.059L66.1,40.564a1.228,1.228,0,0,0,1.223,0l10.128-5.852a1.226,1.226,0,0,0,.612-1.059V4.509a1.226,1.226,0,0,0-.629-1.069Zm33.727,25.617a1.223,1.223,0,0,0,.608-1.057V21.8a1.224,1.224,0,0,0-.609-1.058L95.073,14.9a1.222,1.222,0,0,0-1.226,0L83.721,20.748a1.221,1.221,0,0,0-.612,1.059V33.5a1.227,1.227,0,0,0,.617,1.064l10.061,5.735a1.22,1.22,0,0,0,1.2.007l6.086-3.382a.611.611,0,0,0,0-1.064L90.889,30.008a.607.607,0,0,1-.308-.528V25.813a.607.607,0,0,1,.306-.53l3.17-1.829a.6.6,0,0,1,.61,0l3.172,1.829a.609.609,0,0,1,.306.528v2.883a.61.61,0,0,0,.918.528Zm0,0" transform="translate(0 0)"/><path class="d" d="M108.492,29.008a.232.232,0,0,1,.234,0l1.943,1.121a.235.235,0,0,1,.117.2v2.245a.235.235,0,0,1-.117.2L108.726,33.9a.232.232,0,0,1-.234,0l-1.942-1.121a.234.234,0,0,1-.12-.2V30.332a.232.232,0,0,1,.117-.2Zm0,0" transform="translate(-14.18 -3.861)"/><g class="e" transform="translate(27.74 14.799)"><path class="b" d="M84.787,65.924,56.409,52.014,41.858,81.7,70.236,95.608Zm0,0" transform="translate(-52.036 -60.936)"/></g><g class="f" transform="translate(27.99 14.833)"><path class="b" d="M39.733,69.8,59.77,96.919l26.5-19.579L66.232,50.221Zm0,0" transform="translate(-52.002 -60.731)"/></g><g class="g" transform="translate(28.378 14.801)"><path class="b" d="M54.336,62.31V87.99H76.252V62.31Zm0,0" transform="translate(-54.336 -62.31)"/></g></g></g></svg>