<svg xmlns="http://www.w3.org/2000/svg" width="24.367" height="30.38" viewBox="0 0 24.367 30.38"><defs><style>.a{fill:#21b3ff;}</style></defs><path class="a" d="M59.377,0A12.193,12.193,0,0,0,47.2,12.177a11.985,11.985,0,0,0,.217,2.286c.006.045.032.178.083.408a11.993,11.993,0,0,0,.815,2.4c1.312,3.089,4.2,7.834,10.528,12.916a.862.862,0,0,0,1.083,0c6.324-5.082,9.216-9.827,10.528-12.916a11.859,11.859,0,0,0,.815-2.4c.051-.229.076-.363.083-.408a12.523,12.523,0,0,0,.217-2.286A12.212,12.212,0,0,0,59.377,0ZM69.644,14.164c0,.013-.006.025-.006.038-.006.032-.025.127-.057.274v.013a10.111,10.111,0,0,1-.707,2.076c-.006.006-.006.019-.013.025-1.191,2.821-3.8,7.127-9.483,11.821-5.681-4.694-8.292-9-9.483-11.821-.006-.006-.006-.019-.013-.025a10.786,10.786,0,0,1-.707-2.076v-.013c-.038-.146-.051-.242-.057-.274,0-.013-.006-.025-.006-.045a10.457,10.457,0,1,1,20.533.006Z" transform="translate(-47.2)"/></svg>