<svg xmlns="http://www.w3.org/2000/svg" width="92" height="81.93" viewBox="0 0 92 81.93"><defs><style>.a{fill:#0e77ff;}</style></defs><path class="a" d="M267.7,118.974c0-6.095-7.632-11.87-19.334-15.452,2.7-11.927,1.5-21.415-3.788-24.453a8.222,8.222,0,0,0-4.2-1.05V82.2a4.342,4.342,0,0,1,2.138.488c2.55,1.463,3.657,7.032,2.794,14.2-.206,1.763-.544,3.619-.956,5.513a90.876,90.876,0,0,0-11.908-2.044,91.477,91.477,0,0,0-7.8-9.376c6.113-5.682,11.852-8.795,15.752-8.795V78h0c-5.157,0-11.908,3.675-18.734,10.051-6.826-6.338-13.577-9.976-18.734-9.976v4.182c3.882,0,9.639,3.094,15.752,8.739a88.569,88.569,0,0,0-7.745,9.358,87.567,87.567,0,0,0-11.927,2.063c-.431-1.875-.75-3.694-.975-5.438-.881-7.163.206-12.733,2.738-14.214a4.173,4.173,0,0,1,2.157-.488V78.094h0a8.362,8.362,0,0,0-4.238,1.05c-5.269,3.038-6.451,12.508-3.732,24.4-11.664,3.6-19.259,9.358-19.259,15.433,0,6.095,7.632,11.87,19.334,15.452-2.7,11.927-1.5,21.415,3.788,24.453a8.243,8.243,0,0,0,4.219,1.05c5.157,0,11.908-3.676,18.734-10.051,6.826,6.338,13.577,9.976,18.734,9.976a8.361,8.361,0,0,0,4.238-1.05c5.269-3.038,6.451-12.508,3.732-24.4C260.105,130.826,267.7,125.05,267.7,118.974Zm-24.416-12.508c-.694,2.419-1.556,4.913-2.532,7.407-.769-1.5-1.575-3-2.457-4.5-.863-1.5-1.782-2.963-2.7-4.388C238.259,105.379,240.828,105.866,243.284,106.466ZM234.7,126.438c-1.463,2.532-2.963,4.932-4.519,7.163-2.794.244-5.626.375-8.476.375-2.832,0-5.663-.131-8.439-.356q-2.335-3.347-4.538-7.126-2.138-3.685-3.9-7.464c1.163-2.513,2.475-5.026,3.882-7.482,1.463-2.532,2.963-4.932,4.519-7.163,2.794-.244,5.626-.375,8.476-.375,2.832,0,5.663.131,8.439.356q2.335,3.347,4.538,7.126,2.138,3.685,3.9,7.464C237.4,121.468,236.1,123.981,234.7,126.438ZM240.753,124c1.013,2.513,1.875,5.026,2.588,7.464-2.457.6-5.044,1.106-7.726,1.5.919-1.444,1.838-2.925,2.7-4.444C239.177,127.019,239.984,125.5,240.753,124Zm-19.015,20.009a77.31,77.31,0,0,1-5.213-6c1.688.075,3.413.131,5.157.131,1.763,0,3.507-.038,5.213-.131A73.187,73.187,0,0,1,221.738,144.009Zm-13.952-11.045c-2.663-.394-5.232-.881-7.689-1.481.694-2.419,1.556-4.913,2.532-7.407.769,1.5,1.575,3,2.457,4.5S206.867,131.539,207.786,132.964ZM221.644,93.94a77.315,77.315,0,0,1,5.213,6c-1.688-.075-3.413-.131-5.157-.131-1.763,0-3.507.037-5.213.131A73.192,73.192,0,0,1,221.644,93.94Zm-13.877,11.045c-.919,1.444-1.838,2.925-2.7,4.444-.863,1.5-1.669,3-2.438,4.5-1.013-2.513-1.875-5.026-2.588-7.464C202.5,105.885,205.085,105.379,207.767,104.985ZM190.8,128.463c-6.638-2.832-10.933-6.545-10.933-9.489s4.294-6.676,10.933-9.489c1.613-.694,3.375-1.313,5.194-1.894a90.069,90.069,0,0,0,4.219,11.42,88.79,88.79,0,0,0-4.163,11.364C194.19,129.795,192.427,129.157,190.8,128.463Zm10.089,26.8c-2.55-1.463-3.657-7.032-2.794-14.2.206-1.763.544-3.619.956-5.513a90.879,90.879,0,0,0,11.908,2.044,91.481,91.481,0,0,0,7.8,9.376c-6.113,5.682-11.852,8.795-15.752,8.795A4.476,4.476,0,0,1,200.885,155.261Zm44.481-14.289c.881,7.163-.206,12.733-2.738,14.214a4.174,4.174,0,0,1-2.157.488c-3.882,0-9.639-3.094-15.752-8.739a88.578,88.578,0,0,0,7.745-9.357,87.57,87.57,0,0,0,11.927-2.063A52.5,52.5,0,0,1,245.366,140.971Zm7.22-12.508c-1.613.694-3.375,1.313-5.194,1.894a90.066,90.066,0,0,0-4.219-11.42,88.794,88.794,0,0,0,4.163-11.364c1.857.581,3.619,1.219,5.269,1.913,6.638,2.832,10.933,6.545,10.933,9.489C263.518,121.919,259.224,125.65,252.586,128.463Z" transform="translate(-175.7 -78)"/><path class="a" d="M320.8,78.4Z" transform="translate(-293.59 -78.325)"/><circle class="a" cx="8.57" cy="8.57" r="8.57" transform="translate(37.411 32.404)"/><path class="a" d="M520.5,78.1Z" transform="translate(-455.841 -78.081)"/></svg>