<svg xmlns="http://www.w3.org/2000/svg" width="77.29" height="73.374" viewBox="0 0 77.29 73.374"><defs><style>.a{fill:#0e77ff;}</style></defs><g transform="translate(-11.15 -13.3)"><path class="a" d="M64.7,65.114a5.524,5.524,0,0,0-.59-11.016h-.2a5.5,5.5,0,0,0-5.311,5.7,5.648,5.648,0,0,0,1.574,3.639c-3.344,6.59-8.459,11.409-16.13,15.442a26.6,26.6,0,0,1-16.032,3.049c-4.426-.59-7.868-2.557-10.032-5.8A14.447,14.447,0,0,1,17.2,60.885a23.152,23.152,0,0,1,6.688-7.868c-.393-1.279-.984-3.442-1.279-5.016C8.347,58.327,9.822,72.294,14.15,78.884,17.4,83.8,23.985,86.85,31.264,86.85a24.18,24.18,0,0,0,5.9-.688A37.744,37.744,0,0,0,64.7,65.114Z" transform="translate(0 -0.571)"/><path class="a" d="M82.481,52.724C75.006,43.97,63.99,39.151,51.4,39.151H49.827A5.4,5.4,0,0,0,45.008,36.2h-.2a5.51,5.51,0,0,0,.2,11.016h.2a5.54,5.54,0,0,0,4.819-3.344h1.77a37.487,37.487,0,0,1,20.95,6.393A26.347,26.347,0,0,1,83.17,62.854a13.632,13.632,0,0,1-.2,11.606A14.439,14.439,0,0,1,69.5,82.525,25.155,25.155,0,0,1,59.86,80.46c-1.082.984-3.049,2.557-4.426,3.541A30.361,30.361,0,0,0,68.121,87.05c9.442,0,16.425-5.213,19.081-10.426,2.852-5.7,2.656-15.54-4.721-23.9Z" transform="translate(-0.466 -0.377)"/><path class="a" d="M32.309,66.215a5.525,5.525,0,0,0,5.508,5.311h.2a5.51,5.51,0,0,0-.2-11.016h-.2a1.674,1.674,0,0,0-.688.1,36.038,36.038,0,0,1-5.114-21.835,26.385,26.385,0,0,1,5.8-15.245c2.852-3.639,8.36-5.41,12.1-5.508,10.426-.2,14.852,12.786,15.147,18,1.279.3,3.442.984,4.918,1.475C68.6,21.562,58.766,13.3,49.324,13.3c-8.852,0-17.015,6.393-20.261,15.835C24.539,41.725,27.489,53.822,33,63.363a4.418,4.418,0,0,0-.688,2.852Z" transform="translate(-0.258)"/></g></svg>