<svg xmlns="http://www.w3.org/2000/svg" width="1928.999" height="942.761" viewBox="0 0 1928.999 942.761"><defs><style>.a{fill:#fff;stroke:rgba(0,0,0,0);stroke-miterlimit:10;}</style></defs><path class="a" d="M169,5379.908v-388s750.557,400.837,1220.793-150.047l-5.749-3.057,12.441-59.863c-71.945-10.555-107.212,87.029-107.212,87.029l-10.8-5.741c19.307-203.017,144.227-167.064,144.227-167.064,48.861-228.8,179.848-252.351,211.585-254.676h0a0,0,0,0,0,0,0c1.007,1.761,2.17,3.9,3.419,6.417,18.372,36.916,55.764,153.7-96.242,311.407,0,0,99.66,83.46-57.85,212.992l-10.8-5.741s61.18-83.805,12.2-137.55l-42.673,43.789-6.478-3.443-.05.065,1.18.685c-6.524,17.592-101.56,257.321,157.392,334.8,267.386,80,502.607-192,502.607-192v370Z" transform="translate(-168.5 -4437.647)"/></svg>